<?xml version="1.0" encoding="UTF-8"?><svg id="Layer_1" xmlns="http://www.w3.org/2000/svg" xmlns:xlink="http://www.w3.org/1999/xlink" viewBox="0 0 800 500"><defs><style>.cls-1{opacity:.1;}.cls-1,.cls-2,.cls-3,.cls-4,.cls-5,.cls-6,.cls-7,.cls-8,.cls-9,.cls-10,.cls-11,.cls-12,.cls-13,.cls-14,.cls-15,.cls-16,.cls-17{stroke-width:0px;}.cls-1,.cls-3,.cls-4,.cls-17{isolation:isolate;}.cls-1,.cls-3,.cls-12{fill:#fff;}.cls-2{fill:url(#linear-gradient);}.cls-3{opacity:.2;}.cls-18{stroke:#0b0204;stroke-miterlimit:10;stroke-width:1.66px;}.cls-18,.cls-9{fill:#0b0204;}.cls-4{opacity:.76;}.cls-4,.cls-17{fill:#231f20;}.cls-5{fill:url(#linear-gradient-4);}.cls-6{fill:url(#linear-gradient-2);}.cls-7{fill:url(#linear-gradient-3);}.cls-8{fill:#514452;}.cls-10{fill:#095456;}.cls-11{fill:#131313;}.cls-13{fill:#00acba;}.cls-14{fill:#00a7b9;}.cls-15{fill:#00727c;}.cls-16{fill:#00272a;}.cls-17{opacity:.5;}</style><linearGradient id="linear-gradient" x1="406.58" y1="388.66" x2="744.04" y2="388.66" gradientTransform="translate(0 500) scale(1 -1)" gradientUnits="userSpaceOnUse"><stop offset="0" stop-color="#00373b"/><stop offset=".17" stop-color="#001f21"/><stop offset=".48" stop-color="#032a2c"/><stop offset=".87" stop-color="#074345"/><stop offset="1" stop-color="#095456"/></linearGradient><linearGradient id="linear-gradient-2" x1="397.16" y1="345.87" x2="681.72" y2="345.87" gradientTransform="translate(0 500) scale(1 -1)" gradientUnits="userSpaceOnUse"><stop offset="0" stop-color="#00373b"/><stop offset=".17" stop-color="#001f21"/><stop offset=".48" stop-color="#032a2c"/><stop offset=".87" stop-color="#074345"/><stop offset="1" stop-color="#095456"/></linearGradient><linearGradient id="linear-gradient-3" x1="3893.47" y1="388.6" x2="4231" y2="388.6" gradientTransform="translate(4281.4 500) rotate(-180)" gradientUnits="userSpaceOnUse"><stop offset="0" stop-color="#00373b"/><stop offset=".17" stop-color="#001f21"/><stop offset=".48" stop-color="#032a2c"/><stop offset=".87" stop-color="#074345"/><stop offset="1" stop-color="#095456"/></linearGradient><linearGradient id="linear-gradient-4" x1="3884.1" y1="345.94" x2="4168.64" y2="345.94" gradientTransform="translate(4281.4 500) rotate(-180)" gradientUnits="userSpaceOnUse"><stop offset="0" stop-color="#00373b"/><stop offset=".17" stop-color="#001f21"/><stop offset=".48" stop-color="#032a2c"/><stop offset=".87" stop-color="#074345"/><stop offset="1" stop-color="#095456"/></linearGradient></defs><path class="cls-18" d="m396.25,478.7l-.56-414.4h1.56c38.74,0,67.7,4.32,93.26,8.13,21.46,3.2,41.73,6.22,64.47,6.22,49.5,0,84.48-18.74,115.34-35.28,23.5-12.6,43.8-23.47,65.73-23.47,1.73.04,3.34.9,4.34,2.31,12.79,16.03-.41,129-11.89,179.42-1.8,7.57-4.74,38.11-7.34,65.06-1.99,20.68-3.88,40.23-5.14,48.68,5.45,25.89,5.41,101.95-19.48,133.77-17.91,22.89-36.48,29.57-300.33,29.57l.04-.02Z"/><path class="cls-18" d="m398.24,478.7l.56-414.4h-1.56c-38.74,0-67.7,4.32-93.26,8.13-21.46,3.2-41.73,6.22-64.47,6.22-49.5,0-84.48-18.74-115.35-35.28-23.5-12.6-43.81-23.47-65.74-23.47-1.73.04-3.34.9-4.34,2.31-12.78,16.03.41,129,11.89,179.42,1.8,7.57,4.74,38.11,7.34,65.06,1.99,20.68,3.88,40.23,5.14,48.68-5.45,25.89-5.41,101.95,19.48,133.77,17.91,22.89,36.48,29.57,300.33,29.57l-.02-.02Z"/><path class="cls-10" d="m708.57,316.53c-.61-6.97-8.53-16-1.34-58.45,1.67-9.83,2.28-24.01,1.15-37.45-.46,2.78-.99,5.54-1.68,8.26-1.73,7.16-4.57,14-8.41,20.28-3.85,6.14-8.77,11.53-14.53,15.93,5.56-4.53,10.05-10.23,13.14-16.69,1.5-3.19,2.71-6.52,3.61-9.93.87-3.4,1.47-6.87,1.79-10.36.3-3.22.42-6.46.35-9.7-.87,4.13-2.03,8.2-3.47,12.18-2.45,6.85-6.04,13.24-10.62,18.9-4.55,5.51-10.05,10.15-16.25,13.7,6.01-3.72,11.13-8.71,14.99-14.62,3.73-5.86,6.31-12.37,7.6-19.2,1.26-6.56,1.67-13.25,1.23-19.92-9.16,39.3-35.28,52.98-57.05,55.4.5-.02.99-.02,1.49-.04,7.81-.33,15.51-1.93,22.81-4.72,3.67-1.44,7.16-3.27,10.43-5.47,3.33-2.2,6.25-4.97,8.6-8.2-1.93,3.6-4.49,6.82-7.55,9.52-3.08,2.75-6.47,5.12-10.11,7.06-7.07,3.77-14.72,6.33-22.64,7.57,4.1.63,8.25.94,12.4.92,6.09-.03,12.12-1.13,17.83-3.25-5.38,3.24-11.32,5.43-17.52,6.44-3.2.56-6.43.89-9.68.99,5.21.96,10.49,1.63,15.79,2.3,5.59.57,11.14,1.49,16.61,2.76,2.73.7,5.38,1.7,7.89,2.98,2.49,1.3,4.74,3.02,6.65,5.08-4.07-3.84-9.2-6.36-14.73-7.22-5.48-.93-11.03-1.44-16.59-1.55-7.8-.2-15.58-.81-23.32-1.83.96.21,1.9.42,2.87.61,5.27.99,10.64,1.64,16.03,2.33,5.44.57,10.82,1.56,16.1,2.97,2.62.77,5.17,1.8,7.59,3.07,2.4,1.29,4.63,2.86,6.66,4.68-4.19-3.45-9.16-5.82-14.47-6.92-5.29-1.06-10.66-1.65-16.05-1.75-10.8-.4-21.88-.87-32.72-3.71-10.89-2.9-21.21-7.62-30.52-13.97-1.67-1.12-3.3-2.3-4.92-3.5,3.38,3.74,6.96,7.29,10.74,10.62,3.59,3.09,7.45,5.85,11.53,8.24,4.12,2.37,8.43,4.41,12.88,6.09,4.49,1.68,9.06,3.11,13.7,4.3,4.66,1.2,9.38,2.14,14.13,3.03-4.82-.37-9.62-1-14.38-1.86-4.79-.83-9.51-1.99-14.14-3.48-9.4-2.94-18.15-7.67-25.75-13.93-2.49-2.03-4.82-4.21-7.08-6.45,2.34,3.93,5.08,7.61,8.17,10.97,3.91,4,8.4,7.38,13.33,10.02,4.95,2.71,10.1,5.05,15.41,6.98-5.45-1.61-10.76-3.63-15.9-6.04-5.2-2.45-9.99-5.69-14.2-9.61-4.23-3.96-7.53-8.77-10.64-13.48-3-4.72-6.33-9.23-9.95-13.5-.66-.75-1.34-1.49-2.02-2.22-.45-.48-.9-.97-1.36-1.44-2.69-2.8-5.53-5.47-8.5-8-4.34-3.57-8.87-6.91-13.57-9.99-9.29-6.59-18.17-13.59-27.37-20.08-9.11-6.54-18.67-12.44-28.61-17.64-5.89-3.04-11.94-5.75-18.12-8.14,3.58,2.72,6.25,6.46,7.67,10.73,30.1,8.34,44.14,22.68,60.79,40.12-20.61-16.24-30-24.61-57.1-33.57-.26.45-.48.85-.69,1.22,3.61,1.29,27.6,10.09,37.16,20.67-12.88-11.44-35.13-18.03-38.13-18.88-.3.58-.52,1.02-.7,1.38-.34,4.04-1.41,7.98-3.15,11.64-2.3,4.82-5.5,9.16-9.42,12.78,3.23-4.1,5.84-8.64,7.75-13.5,1.89-4.73,2.7-9.83,2.35-14.92-.39-5.01-2.3-9.79-5.46-13.7-1.1-1.35-2.33-2.57-3.69-3.66,1.64,1.64,2.98,3.54,3.97,5.63,2.74,5.64,2.97,12.12,1.85,18.09-1.18,5.99-3.7,11.63-7.37,16.5-3.61,4.81-8.21,8.78-13.5,11.64,4.73-3.48,8.79-7.78,12.01-12.69,3.18-4.82,5.36-10.23,6.4-15.91,1.09-5.6.59-11.39-1.43-16.73-1.06-2.63-2.65-5.01-4.66-7-1.44-1.37-3.07-2.53-4.84-3.45-.81-.26-1.62-.52-2.43-.77.63.61,1.22,1.25,1.78,1.92,6.72,8.18,6.38,18.69,3.78,31.96-3.88,19.84-30.86,34.56-65.3,36.25l-4.21,63.92c1.85,3.73,4.8,5.09,9.03,5.09,53.22,0,94.29,20.57,177.67,15.74,16.16-.93,48.79-7.03,64.56-7.03,45.97,0-3.02,92.36-3.02,92.36,25.29-35.74,67.59-26.2,60.65-105.67h-.06Zm-219.39-97.96c-.51,1.98-1.28,3.89-2.28,5.68-1.92,3.61-4.71,6.67-8.12,8.93,2.7-2.88,4.98-6.12,6.79-9.63.88-1.74,1.66-3.53,2.32-5.36.69-1.85,1.22-3.76,1.61-5.7.32,2.03.21,4.1-.33,6.08h0Zm131.6,84.89c-8.39-2.7-16.31-6.67-23.5-11.76-7.08-5.12-13.62-10.97-19.49-17.44-5.89-6.39-11.34-13.11-16.7-19.9,6.15,6.09,12.14,12.33,18.36,18.27,6.09,6.01,12.68,11.48,19.71,16.35,7.05,4.75,14.65,8.61,22.64,11.51,8.1,2.87,16.36,5.25,24.74,7.13-8.74-.11-17.43-1.51-25.77-4.14v-.02Z"/><path class="cls-11" d="m437.81,175.37c14.95,4.01,23.42,14.14,23.42,27.58,0,18.13-12.27,27.32-25.52,27.32-9.5,0-23.91-6.4-23.91-23.85-.2-7.05,5.36-12.92,12.41-13.12s12.92,5.36,13.12,12.41c0,.24,0,.48,0,.71,0,10.09,15.86,6.67,15.86-5.75,0-6.04-1.99-21.81-20.44-26.09-9.31-1.3-20.97-1.96-35.5-1.96h-.01c-14.54,0-26.2.66-35.5,1.97-18.46,4.28-20.45,20.05-20.45,26.09,0,12.43,15.86,15.84,15.86,5.75-.12-7.05,5.49-12.87,12.54-12.99,7.05-.12,12.87,5.49,12.99,12.54,0,.15,0,.3,0,.45,0,17.46-14.41,23.86-23.91,23.86-13.26,0-25.52-9.18-25.52-27.31,0-13.44,8.45-23.58,23.41-27.58-29.97,5.49-31.39,19.02-27.35,39.72,3.28,16.81,27.12,31.17,60.98,32.9l6.91-60.13h.01l6.94,60.12c33.86-1.73,57.7-16.1,60.99-32.9,4.03-20.7,2.61-34.23-27.35-39.72l.02-.02Z"/><path class="cls-1" d="m397.26,176.09s0,.03,0,.04c0-.01,0-.03,0-.04-26.45,0-40.34,6.2-41.46,14.46,11.28-8.95,22.13-6.77,26.92,1.15,3-4.54,7.63-8.29,14.55-8.29h.01c5.92,0,11.55,3.75,14.55,8.29,4.8-7.92,15.66-10.1,26.93-1.15-1.12-8.26-15.02-14.46-41.47-14.46h-.02Z"/><path class="cls-12" d="m600.1,255.86c.83.64,1.67,1.27,2.53,1.88,8.99,3.17,18.46,4.79,27.99,4.79,1.26,0,2.54-.02,3.82-.08,10.78-.46,41.23-5.13,55.18-41.14.08-1.3.14-2.6.14-3.92-.04-29.05-20.53-54.04-49-59.79-6.55,10.73-12.44,20.22-17.81,28.6,17.23-3.36,33.93,7.88,37.29,25.11s-7.88,33.93-25.11,37.29-33.93-7.88-37.29-25.11c-.07-.35-.13-.7-.19-1.04-5.84,7.26-10.93,12.48-15.69,16.15,5.46,6.34,11.54,12.13,18.15,17.27v-.02Z"/><path class="cls-13" d="m631.46,172.7c-2.99,4.81-5.82,9.28-8.52,13.5,17.23-3.37,33.93,7.87,37.3,25.1s-7.87,33.93-25.1,37.3c-17.23,3.37-33.93-7.87-37.3-25.1-.07-.35-.13-.71-.19-1.06-3.23,4.08-6.72,7.96-10.44,11.6,9.19,22.96,35.25,34.12,58.21,24.93,22.96-9.19,34.12-35.25,24.93-58.21-6.44-16.09-21.59-27.02-38.89-28.05h0Z"/><circle class="cls-12" cx="634.55" cy="206.4" r="8.03"/><path class="cls-12" d="m620.23,222.97c0,2.46-1.99,4.46-4.45,4.46-2.46,0-4.46-1.99-4.46-4.45s1.99-4.46,4.45-4.46h0c2.46,0,4.46,1.99,4.46,4.45h0Z"/><circle class="cls-12" cx="620.33" cy="232.46" r="2.57"/><path class="cls-15" d="m686.65,217.4c-.04-28-20.08-51.96-47.63-56.96-1.88,3.07-3.71,6.04-5.48,8.9,26.53,2.63,45.91,26.26,43.28,52.79-.26,2.62-.73,5.22-1.42,7.76,1.14-1.75,2.06-3.63,2.74-5.61,0,0-.22,3.47-.11,5.33,1.55-3.78,2.43-7.79,2.6-11.87.1,3.61.02,6.88-.02,11.01,1.46-3.96,1.88-10.65,1.88-10.65.56,4.13.72,8.3.48,12.46,1.1-5.07,1.76-10.22,1.97-15.4,1.2,6.37.32,14.73.32,14.73.91-4.1,1.37-8.29,1.37-12.49h0Z"/><path class="cls-4" d="m600.34,237.34c-2.49-3.54-4.29-7.52-5.31-11.73-1.87,2.21-3.67,4.2-5.4,6,2.3,6.3,6.09,11.96,11.05,16.47-2.32-2.68-4.3-5.63-5.91-8.79,2.27,2.96,4.79,5.71,7.53,8.24-1.86-2.34-3.5-4.86-4.88-7.52,1.63,2.03,3.48,3.86,5.52,5.47-1.74-2.41-3.14-4.3-4.57-6.46,1.79,2.33,3.97,4.33,6.45,5.9-.71-1.14-2.28-3.09-2.28-3.09,1.22.88,2.54,1.61,3.93,2.16-2.33-1.94-4.4-4.18-6.14-6.66h0Zm60.48-44.58c2.43,2.58,4.55,5.44,6.29,8.52-6.34-15.21-21.08-25.23-37.56-25.53-1.52,2.44-3.01,4.8-4.46,7.08,15.82-1.69,30.75,7.6,36.23,22.53-.05-1.5-.29-2.99-.71-4.43,0,0,1.31,2.13,2.14,3.19-.65-2.86-1.79-5.59-3.38-8.06,1.56,2.07,2.87,4.03,4.55,6.48-.83-2.46-1.94-4.83-3.3-7.04,2.04,2.19,3.87,4.58,5.45,7.12-1.45-3.43-3.2-6.74-5.22-9.87h-.03Z"/><path class="cls-8" d="m564.77,375.33c4.09,25.52-9.83,77.29-13.01,77.85-5.48.96-7.22-20.2-13.73-42.3-5.03-17.06-11.36-40.28-8.86-46.22,4.18-9.93,29.43-27.75,35.59,10.68h0Zm35.62-10.26c2.1,11.02-6.36,30.43-8.7,31.21-2.92.97-5.11-3.33-10.14-12.67-4.5-8.37-12.88-12.97-8.05-18.78,4.01-4.83,20.55-33.07,26.89.24h0Zm27.99-22.04c5.95,6.67,2.9,19.53.02,22.54-2.66,2.77-8,2.04-13.79-4.14-5.19-5.54-10.16-11.11-6.8-16.44,2.78-4.42,17.62-5.26,20.57-1.96h0Z"/><path class="cls-12" d="m538.03,397.83c-1.9-10.46-11.08-31.49-1.9-30.72,1.91.17,15.79-6.26,20.32,0,.97,1.35,5.47,9.66,6.96,12.82.69,1.47.25,16.86-.02,18.52-.77,4.65-1.4,12.64-2.55,17.29-.97,3.91-4.92,17.25-7.67,24.55-5.91-5.84-3.39-26.82-4.11-34.46-1.87,5.42-.94,12.91-3.19,18.11-2.94-5.44-.75-12.18-3.64-17.87-1.45-2.85-3.79-5.43-4.22-8.6"/><path class="cls-8" d="m516.44,356.49c6.97,12.93-4.75,53.47-7.01,53.86-3.89.66-8.51-4.48-13.36-22.98-3.13-11.93-10.26-21.87-5.99-29.73,3.54-6.51,19.43-14.02,26.37-1.15h0Z"/><path class="cls-12" d="m499.21,369.67c2.9,0,5.92-.28,8.81,0,1.36.13,2.51.62,3.88.36,1.17-.22,2.36-2.64,3.42-.1.49,1.18,2.12-1.1,1.93.23-.55,3.74-.99,10.14-1.81,13.88-.69,3.14-3.49,13.85-5.45,19.72-4.21-4.69-3.07-11.18-3.59-17.3-1.32,4.35,0,0-1.6,4.18-2.09-4.37-.53-9.79-2.58-14.35-1.03-2.29-2.7-4.36-3-6.9m82.29-1.84c.02,4.88,1.93,26,9.61,26.17,6.74.15,8.08-26.64,5.85-33.83-6.65-1.31-14.12,4.7-15.47,11.1m33.12-12.15c2.51,2.13,6.64,7.46,10.41,6.13,3.01-1.07,5.82-9.32,5.8-11.8-4.29-.7-13.7,2.34-15.25,6.63"/><path class="cls-8" d="m436.39,372.74c0,7.11-9.31,18.64-15.09,18.64s-15.08-8.97-15.08-18.64c0-6.56,6.76-27.51,15.09-27.51s15.09,20.47,15.09,27.51h-.01Z"/><path class="cls-12" d="m414.03,366.47c4.71,1.78,11.82-2.23,16.37,1.03,1.31,1.01,2.05,2.59,2,4.24.29,4.35-1.65,10.64-3.92,14.2.04-5.85-.67-9.12-1.53-18.7-1.03.92-.52,3.67-.52,5.05,0,4.97-.37,9.9-.73,14.81-2.03,1.66-3.66-2.84-4.75-4.12-1.9-2.2-3.91-3.41-5.08-6.15-1.28-2.98-3.18-6.87-1.84-9.89"/><path class="cls-8" d="m477.88,378.72c0,6.52-10.33,12.66-14.89,12.66s-14.89-7.52-14.89-12.66c0-10.2,6.67-33.42,14.89-33.42s14.89,23.22,14.89,33.42Z"/><path class="cls-12" d="m455.91,366.47c4.72,1.78,11.83-2.23,16.37,1.03,1.31,1.01,2.05,2.59,2,4.24.29,4.35-1.65,10.64-3.92,14.2.04-5.85-.67-9.12-1.53-18.7-1.03.92-.52,3.67-.52,5.05,0,4.97-.37,9.9-.73,14.81-2.03,1.66-7.46.65-8.55-.63-1.9-2.21-2.5-6.66-3.67-9.4-1.27-2.97-.78-7.11.56-10.13"/><path class="cls-16" d="m722.23,223c-6.16,29.18-10.57,58.71-13.2,88.41-.68,7.35,3.45,5.8,3.45,5.8l9.75-94.21Z"/><path class="cls-17" d="m451.79,234.24c48.54,10.62,97.19,54.3,97.19,54.3,0,0-50.99-35.82-90.18-43.38,0,0,44.68,18.79,75.12,43.4-47.03-25.19-77.52-35.43-77.52-35.43l64.41,36.34-66.74-29.26,53.3,30.19-56.44-23.31,44.2,26.57-46.33-18.67,35.4,21.08-35.92-12.45,26.46,14.75-30.73-9.33,21.01,12.75-26.17-7.95,19.58,11.73-24.98-7.66,17.5,10.64-25.74-6.37,19.51,10.5-26.31-6.33,21.06,11.63-28.52-8.07,23.72,12.59-28.6-9.12,24.34,14.12-29.29-10.65,25.3,16.11-28.89-12.9s1.68-65.24,7.85-68.67c25.55-3.35,46.38-17.19,46.38-17.19l.03.02Z"/><path class="cls-9" d="m424.7,292.41c1.72,3.49,9.13,2.08,14.02,2.38-6.65-2.06-8.14-5.54-11.01-6.02-2.21-.37-3.59,2.45-3.01,3.64h0Zm45.99,15.96c1.72,3.49,9.13,2.08,14.02,2.38-6.66-2.06-8.15-5.54-11.01-6.02-2.22-.37-3.61,2.45-3.02,3.64h0Zm-17.46-21.33c.8,3.81,8.32,4.3,12.98,5.81-5.93-3.66-6.5-7.4-9.15-8.58-2.05-.92-4.1,1.48-3.83,2.77h0Zm13.01-19.8c.79,3.81,8.33,4.3,12.98,5.81-5.93-3.66-6.51-7.41-9.15-8.58-2.05-.92-4.1,1.48-3.83,2.77h0Zm-22.34,43.48c.8,3.81,8.33,4.3,12.98,5.81-5.92-3.66-6.5-7.41-9.16-8.58-2.04-.92-4.09,1.48-3.82,2.77h0Zm-8.74-42.03c1.46,3.6,8.96,2.74,13.81,3.4-6.49-2.54-7.72-6.12-10.54-6.81-2.18-.53-3.76,2.18-3.27,3.41h0Zm47.4,18.83c1.46,3.61,8.96,2.75,13.81,3.4-6.49-2.54-7.73-6.12-10.55-6.81-2.18-.54-3.77,2.18-3.27,3.41h0Z"/><path class="cls-2" d="m736.07,21.47c-50.04,0-93.49,58.75-181.09,58.75-50.09,0-77.35-14.03-148.4-14.03,69.1,5.45,90.43,32.39,138.65,28.72,39.45-3.01,71.67-3.46,99.15,7.02-1.4-.24-2.81-.4-4.23-.47-4.37-.17-8.73.38-12.92,1.64-4.13,1.26-8.09,3.01-11.8,5.21-7.27,4.4-13.72,10.03-19.06,16.63-5.3,6.46-9.62,13.66-12.82,21.37,4.57-6.78,9.75-13.14,15.47-18.99,5.56-5.77,11.91-10.72,18.86-14.71,6.79-3.9,14.4-6.16,22.22-6.57,1.94-.07,3.89-.02,5.83.16,1.96.22,3.9.55,5.82,1,3.94,1.01,7.77,2.4,11.44,4.17,6.72,4.31,12.95,9.34,18.58,14.99-3.99-3.61-8.78-6.22-13.98-7.6-3.77-.96-7.68-1.23-11.55-.8-3.83.44-7.59,1.4-11.16,2.86-7,2.97-13.43,7.11-19.02,12.26-5.56,5.03-10.53,10.67-14.8,16.83,4.98-5.48,10.38-10.57,16.15-15.22,5.65-4.63,11.97-8.39,18.74-11.14,6.66-2.72,13.96-3.47,21.03-2.17,7.04,1.36,13.48,5.16,19.25,9.87,7.11,7.97,13.44,16.6,18.91,25.77-2.44-5.45-5.27-10.72-8.46-15.77-17.82-27.55-33.33-37.6-33.33-37.6,0,0,60.16-69.08,70.78-65.2,15.6,5.71-2.43,137.69-7.4,162.81,12.53-55.06,26.2-179.83,9.06-179.83l.08.04Zm-80.82,75.92c-9.93-7.41-38.91-14.8-38.91-14.8l15.15-8.61-4.13,6.89,19.97-14.12-14.12,15.15,29.61-20.86-22.38,22.3,40.29-31.39-33.15,33.7,49.68-39.56-42.36,42.7,59.57-49.24-59.22,57.85Z"/><path class="cls-9" d="m597.45,333.59c3.8-.85,7.62-1.6,11.44-2.37,3.81-.78,7.64-1.52,11.47-2.2,7.66-1.38,15.35-2.68,23.12-3.58,3.91-.49,7.85-.77,11.8-.82,2.02-.03,4.03.08,6.03.3,2.09.21,4.14.72,6.08,1.52,2.04.82,3.85,2.13,5.27,3.8,1.35,1.62,2.39,3.48,3.06,5.49,1.22,3.79,1.88,7.73,1.98,11.71-1.41-3.67-2.58-7.41-4.27-10.73-.78-1.61-1.8-3.09-3.03-4.39-1.22-1.2-2.67-2.14-4.26-2.76-3.49-1.16-7.15-1.69-10.82-1.58-3.79,0-7.63.28-11.48.6-7.69.7-15.41,1.66-23.13,2.55-3.86.45-7.72.9-11.6,1.29-3.87.41-7.74.84-11.62,1.16h-.04Zm-79.22,5.39c6.4.32,12.82.32,19.22-.02,12.81-.67,25.56-2.23,38.16-4.65,6.3-1.13,12.56-2.42,18.82-3.68s12.52-2.44,18.77-3.62c12.51-2.34,25.04-4.24,37.75-5.89-12.81-.79-25.7.45-38.33,2.56-6.33,1.03-12.59,2.37-18.85,3.64l-18.73,3.88c-12.45,2.61-25.04,4.51-37.7,5.69-6.33.51-12.69.8-19.06.87-6.37.06-12.74-.19-19.12-.57,6.32.91,12.71,1.49,19.1,1.79h-.03Zm-29.62-8.96c9.15,1.05,18.33,2,27.58,2.32,9.27.37,18.55-.1,27.73-1.41,9.16-1.27,18.19-3.1,27.18-5.16-9.19.83-18.33,1.96-27.46,2.86-9.09.95-18.24,1.32-27.38,1.1-9.15-.25-18.31-.93-27.49-1.6s-18.37-1.31-27.56-1.8c9.11,1.39,18.23,2.63,27.37,3.72l.03-.03Z"/><path class="cls-9" d="m693.39,383.02c1.95-10.29.44-26.39-.94-34.48-1.22-8.1-3.75-15.95-7.47-23.24-1.9-3.63-4.22-7.02-6.92-10.1-2.76-3.08-5.95-5.74-9.47-7.9-3.58-2.18-7.49-3.75-11.58-4.66-2.06-.47-4.16-.74-6.27-.8-2.12-.12-4.25.09-6.3.64,4.07-1.3,8.47-1.17,12.71-.67,4.3.6,8.48,1.84,12.4,3.69,7.96,3.9,14.77,9.8,19.77,17.12,4.99,7.35,8.85,15.41,11.42,23.91,2.6,8.44,4.5,17.07,5.66,25.82l-13.01,10.68Zm17.85-38.52c-.25-6.32-.64-12.6-1.45-18.82-.72-6.21-1.93-12.36-3.63-18.38-.85-2.99-1.91-5.92-3.17-8.76-1.29-2.83-2.88-5.5-4.75-7.98-1.92-2.49-4.17-4.71-6.68-6.61-2.49-1.97-5.24-3.64-7.8-5.56,2.68,1.74,5.52,3.19,8.28,4.86,2.79,1.68,5.39,3.68,7.73,5.95,2.35,2.32,4.44,4.89,6.24,7.67,1.83,2.75,3.47,5.62,4.9,8.6,2.8,5.95,5.21,12.08,7.2,18.35,2,6.24-.07,12.13,1.54,18.44l-8.41,2.24Zm-285.68-170.95c-1-.06-2.03-.1-3.1-.1,1.06,0,2.08.05,3.1.1Zm-56.62,0c1.03-.05,2.04-.1,3.1-.1-1.07,0-2.1.04-3.1.1Z"/><path class="cls-6" d="m463.12,137.43c-5.87,3.49-12.38,5.78-19.14,6.74,6.35-2.04,12.37-4.99,17.87-8.76,5.44-3.69,10.3-8.16,14.44-13.28,3.97-5.11,7.35-10.91,8.23-17.19.51-3.12.09-6.32-1.2-9.2-1.47-2.95-3.69-5.45-6.44-7.26,3.27,1.24,6.06,3.49,7.97,6.43,1.87,3.1,2.71,6.71,2.4,10.32-.3,3.53-1.26,6.98-2.83,10.16-1.51,3.14-3.4,6.09-5.63,8.77-2.18,2.68-4.61,5.15-7.26,7.37-2.62,2.22-5.44,4.21-8.41,5.93v-.04Zm30.65,15.61c-5.34,3.79-11.25,6.69-17.52,8.6.88-.11,1.76-.25,2.64-.41-.54.14-1.07.29-1.6.41,8.03-.54,15.76-3.76,22.66-7.87,3.46-2.06,6.81-4.31,10.03-6.72,3.25-2.36,6.38-4.85,9.5-7.33,6.27-4.93,12.38-9.97,18.86-14.5,6.43-4.64,13.3-8.64,20.51-11.94-7.81,2.02-15.25,5.28-22.03,9.66-6.74,4.36-13.2,9.13-19.35,14.29-4.05,3.27-8.06,6.56-12.16,9.7,1.71-1.64,3.35-3.34,4.94-5.06,4.54-4.84,8.77-9.82,13.56-14.22,4.79-4.48,10.05-8.42,15.69-11.75-6.38,2.12-12.31,5.41-17.49,9.69-5.07,4.33-9.79,9.05-14.12,14.12-2.21,2.43-4.44,4.82-6.75,7.09-2.32,2.26-4.79,4.35-7.4,6.27l.03-.03Zm-35.36,21.74c9.26,2.13,18.31,5.09,27.05,8.83,3.6,1.59,6.96,3.26,10.12,4.99.05,0,.11.02.16.02,1.93.11,3.87.03,5.79-.24,1.94-.19,3.81-.84,5.46-1.88-1.56,1.23-3.39,2.08-5.34,2.48-1.01.25-2.04.45-3.08.59.98.14,1.97.24,2.96.29,1.93.11,3.87.03,5.79-.24,1.94-.19,3.81-.83,5.46-1.88-1.56,1.23-3.4,2.08-5.35,2.48-1.94.48-3.92.77-5.91.86-.56.03-1.11.03-1.66.03l1.26.77c.48.09.97.19,1.46.26,1.81.27,3.64.36,5.46.28,1.84.02,3.65-.49,5.22-1.46-1.49,1.16-3.27,1.87-5.15,2.06-1.56.24-3.14.34-4.72.31,1.26.82,2.47,1.64,3.65,2.48,6.23,2.97,12.37,6.09,18.58,8.9,3.77,1.78,7.7,3.21,11.73,4.28,4.1.95,8.32,1.22,12.51.8-4.13,1.53-8.56,2.06-12.93,1.53-4.34-.63-8.58-1.81-12.62-3.5-.36-.14-.7-.3-1.05-.44.7.51,1.41,1,2.1,1.51.9.66,1.78,1.34,2.67,2.01,4.99,2.23,10.34,3.55,15.79,3.89,5.94.25,11.87-.65,17.46-2.65,5.66-2.1,11.03-4.9,16-8.34,5.06-3.47,9.86-7.3,14.38-11.46-3.79,4.95-8.15,9.44-12.99,13.36-4.89,4-10.37,7.22-16.25,9.54-5.96,2.41-12.37,3.53-18.8,3.26-2.28-.1-4.55-.39-6.79-.87,5.15,4,10.27,8.01,15.48,11.86,1.41,1.05,2.85,2.07,4.3,3.09,52.83-11.6,71.56-116.99,125.11-97.94-57.98-26.77-85.92,64.51-128.1,70.05,25.58-18.12,42.47-52.95,57.64-63.05-19.92,8.23-47.6,53.59-79.69,48.8,7.66-4.34,26.59-11.93,39.26-28.76-16.08,12.4-36.78,21.9-50.55,25.48,10.15-3.77,15.31-10.93,22.82-16.6-8.6,4.96-19.04,9.53-34.09,9.33-13.81-.18-50.48-17.16-50.48-17.16,0,0,36.96-6.26,46.27-40.04-8.38,13.08-21.15,22.56-26.09,25.22,8.45-7.39,14.2-18.09,19.82-32.25-7.55,12.53-23.68,24.63-32.64,30.14,6.74-5.69,18.17-18.69,21.71-27.01-16.64,20.02-28.3,27.04-51.18,29.64-6.41.73-10,.47-13.38-.86-5.64-2.23-10.89-9.37-13.86-26.57-.39,6.39-.44,12.48,1.05,17.81-1.88-1.3-3.51-5.36-4.12-9.37l-3.41-41.36-2.08,69.32-3.46-81.72v90.78c20.66.07,41.23,2.89,61.15,8.37l.1-.05Z"/><path class="cls-17" d="m709.11,200.69c-6.23-2.36-8.53-2.84-20.16-7.58l4.91,3.56c1,28.85,8.47,34.33,3.51,52.53-3.53,12.92,6.82,19.02-13.6,29.19,11.09,5.68,12.6,18.59,13.22,26.31.75,9.47-3.72,13.26-11.71,16.44,3.35,3.03,4.5,8.13,5.06,12.7.66,5.34-1.33,14.96-4.05,19.27-9.92,15.69-16.24,13.86-21.83,18.48-9.07,7.51-1.8,17.89-8.88,28.28-7.51,11.05-12.39,23.37-8.39,37.69,10.52,1.39,24.37-5.02,34.5-6.97,8.78-1.69,17.46-3.03,25.48-5.25,12.98-37.21,11.32-91.28,7.31-109.88,2.62-17.24,8.07-84.72,11.47-108.02-5.8-1.94-11.3-4.62-16.83-6.72v-.03Z"/><path class="cls-9" d="m404.17,248.05l-6.92-60.2h-.01l-6.92,60.19,6.92,104.87h.01l6.92-104.87"/><path class="cls-3" d="m544.74,267.06c-1.17-1.56-2.41-3.08-3.73-4.55-.76-.85-1.57-1.66-2.4-2.46,4.22,3.14,8.41,6.33,12.5,9.65,5.69,4.59,11.22,9.37,16.68,14.36-4.33-6.02-9.27-11.58-14.74-16.58-.61-.56-1.23-1.1-1.85-1.65,1.56,1.36,3.12,2.74,4.65,4.16-3.57-5.36-7.83-10.24-12.65-14.52-1.06-.96-2.14-1.9-3.24-2.82,2.22,1.79,4.42,3.62,6.58,5.51,3.63,3.15,7.15,6.44,10.88,9.65-2.51-4.22-5.47-8.17-8.83-11.76-3.36-3.61-7.05-6.9-11.02-9.82-3.95-2.91-8.11-5.53-12.43-7.85-4.29-2.34-8.72-4.41-13.27-6.21,3.87,3,7.88,5.74,11.85,8.51,1.88,1.32,3.76,2.64,5.63,3.96-.48-.32-.94-.65-1.4-.96-5.33-3.58-10.85-6.85-16.54-9.81-5.66-2.99-11.51-5.62-17.51-7.87l16.16,10.2c5.35,3.42,10.67,6.85,15.88,10.42,2.84,1.97,5.66,3.96,8.45,5.99-5.61-3.94-11.41-7.59-17.4-10.92-6.44-3.63-13.12-6.81-20-9.52,6.26,3.91,12.48,7.8,18.6,11.82,3.67,2.43,7.31,4.89,10.92,7.4-1.66-.93-3.33-1.82-5.04-2.65-3.55-1.78-7.2-3.34-10.94-4.66,3.09,2.52,6.34,4.77,9.59,6.98,1.19.81,2.38,1.6,3.58,2.39-2.57-1.18-5.18-2.27-7.88-3.2,3.09,2.52,6.33,4.77,9.59,6.97,3.23,2.21,6.53,4.31,9.69,6.52,3.14,2.23,6.16,4.51,9.1,7.05,2.96,2.51,5.91,5.13,9.19,7.46-2.08-3.41-4.47-6.61-7.14-9.58-.5-.56-1.03-1.09-1.56-1.63l.04.02Z"/><path class="cls-10" d="m146.58,422.2s-48.99-92.36-3.02-92.36c15.77,0,48.41,6.1,64.56,7.04,83.37,4.83,124.45-15.74,177.66-15.74,4.22,0,7.17-1.36,9.03-5.09l-4.22-63.93c-34.45-1.69-61.43-16.42-65.3-36.25-2.6-13.28-2.95-23.79,3.78-31.96.55-.67,1.15-1.32,1.77-1.93-.81.25-1.62.5-2.43.76-1.77.91-3.4,2.08-4.85,3.45-2.02,1.99-3.6,4.37-4.66,7-2.02,5.33-2.51,11.12-1.43,16.72,1.04,5.68,3.22,11.09,6.4,15.91,3.22,4.91,7.29,9.2,12.01,12.68-5.29-2.86-9.89-6.84-13.5-11.65-3.68-4.87-6.2-10.51-7.38-16.5-1.13-5.97-.89-12.45,1.84-18.09.99-2.09,2.33-4,3.97-5.64-1.36,1.09-2.59,2.31-3.69,3.66-3.16,3.91-5.07,8.69-5.46,13.7-.35,5.09.45,10.19,2.34,14.93,1.91,4.86,4.52,9.4,7.75,13.5-3.93-3.63-7.13-7.97-9.43-12.79-1.73-3.66-2.79-7.59-3.13-11.62-.18-.35-.4-.79-.7-1.38-3.01.85-25.26,7.44-38.14,18.88,9.57-10.58,33.55-19.38,37.17-20.67-.21-.38-.43-.77-.69-1.22-27.09,8.95-36.48,17.32-57.09,33.56,16.64-17.44,30.68-31.79,60.78-40.12,1.41-4.27,4.09-8.02,7.67-10.74-6.18,2.39-12.24,5.1-18.13,8.14-9.94,5.2-19.51,11.09-28.62,17.64-9.2,6.48-18.09,13.48-27.37,20.07-4.71,3.3-9.36,6.31-13.58,9.99-2.97,2.53-5.81,5.2-8.5,8-.46.48-.9.96-1.36,1.44-.68.73-1.37,1.47-2.02,2.22-3.62,4.27-6.95,8.78-9.95,13.5-3.11,4.71-6.41,9.52-10.64,13.48-4.21,3.92-9,7.16-14.2,9.61-5.14,2.42-10.45,4.44-15.9,6.05,5.31-1.93,10.46-4.27,15.41-6.98,4.93-2.65,9.42-6.03,13.33-10.03,3.09-3.37,5.83-7.04,8.16-10.97-2.25,2.24-4.59,4.42-7.08,6.45-7.6,6.25-16.33,10.98-25.72,13.91-4.63,1.49-9.36,2.65-14.15,3.48-4.76.86-9.56,1.48-14.39,1.85,4.75-.89,9.47-1.83,14.13-3.03,4.64-1.19,9.21-2.62,13.7-4.3,4.45-1.68,8.75-3.72,12.87-6.09,4.08-2.39,7.94-5.15,11.53-8.24,3.78-3.33,7.37-6.88,10.75-10.62-1.62,1.2-3.26,2.38-4.93,3.5-9.31,6.35-19.63,11.08-30.52,13.98-10.84,2.83-21.93,3.3-32.72,3.71-5.39.1-10.77.69-16.06,1.74-5.31,1.1-10.28,3.47-14.47,6.92,2.03-1.82,4.26-3.39,6.66-4.68,2.42-1.27,4.97-2.29,7.59-3.06,5.28-1.41,10.66-2.4,16.1-2.96,5.39-.69,10.76-1.34,16.03-2.33.96-.19,1.91-.4,2.86-.61-7.74,1.02-15.53,1.63-23.33,1.83-5.56.11-11.1.62-16.59,1.55-5.53.86-10.66,3.38-14.73,7.22,1.91-2.06,4.16-3.77,6.65-5.07,2.51-1.28,5.16-2.27,7.89-2.97,5.47-1.27,11.02-2.19,16.61-2.76,5.31-.66,10.59-1.34,15.79-2.3-3.25-.1-6.48-.42-9.68-.98-6.2-1.01-12.14-3.2-17.52-6.44,5.7,2.13,11.74,3.23,17.82,3.26,4.15.02,8.29-.29,12.39-.92-7.91-1.24-15.57-3.8-22.64-7.56-3.64-1.94-7.03-4.31-10.11-7.05-3.07-2.7-5.63-5.92-7.56-9.52,2.35,3.23,5.27,6.01,8.6,8.21,3.27,2.2,6.76,4.03,10.43,5.47,7.3,2.79,15,4.39,22.81,4.72.49.02.99.03,1.48.04-21.77-2.43-47.88-16.1-57.05-55.4-.44,6.67-.03,13.36,1.23,19.92,1.29,6.83,3.87,13.34,7.6,19.2,3.86,5.91,8.98,10.9,14.99,14.62-6.2-3.55-11.7-8.19-16.25-13.7-4.58-5.66-8.17-12.05-10.62-18.9-1.44-3.97-2.6-8.04-3.47-12.18-.07,3.24.04,6.48.34,9.7.33,3.49.93,6.96,1.8,10.36.9,3.41,2.11,6.74,3.61,9.93,3.1,6.46,7.58,12.16,13.14,16.69-5.76-4.39-10.68-9.79-14.53-15.92-3.84-6.28-6.68-13.12-8.41-20.28-.69-2.73-1.22-5.49-1.68-8.26-1.08,12.49-.7,25.05,1.14,37.45,7.19,42.45-.72,51.48-1.33,58.45-6.94,79.47,35.36,69.93,60.65,105.67l.11.02Zm158.41-209.72c.38,1.94.92,3.84,1.61,5.69.66,1.83,1.44,3.62,2.32,5.36,1.81,3.51,4.1,6.75,6.79,9.64-3.4-2.25-6.19-5.32-8.12-8.92-1-1.79-1.77-3.7-2.28-5.68-.53-1.98-.64-4.05-.32-6.08v-.02Zm-157.04,95.12c8.38-1.87,16.64-4.25,24.74-7.12,7.99-2.89,15.59-6.76,22.64-11.51,7.03-4.87,13.63-10.34,19.71-16.35,6.22-5.95,12.21-12.18,18.36-18.27-5.36,6.8-10.81,13.51-16.7,19.9-5.87,6.48-12.41,12.33-19.49,17.45-7.19,5.09-15.11,9.06-23.5,11.76-8.34,2.63-17.02,4.03-25.76,4.14h0Z"/><path class="cls-1" d="m397.24,176.09s0,.02,0,.03c0,0,0-.02,0-.03,26.45,0,40.34,6.2,41.47,14.46-11.27-8.95-22.12-6.77-26.92,1.15-3-4.54-7.62-8.29-14.54-8.29h-.01c-5.92,0-11.55,3.75-14.55,8.29-4.8-7.92-15.65-10.1-26.92-1.15,1.13-8.26,15.02-14.46,41.47-14.46h0Z"/><path class="cls-12" d="m194.4,255.86c-.83.64-1.67,1.27-2.53,1.88-8.99,3.17-18.46,4.79-27.99,4.79-1.26,0-2.54-.02-3.82-.08-10.78-.46-41.22-5.13-55.18-41.14-.08-1.3-.14-2.6-.14-3.92.04-29.05,20.53-54.06,49.01-59.8,6.55,10.73,12.44,20.22,17.81,28.6-17.23-3.37-33.93,7.87-37.3,25.11-3.37,17.23,7.87,33.93,25.11,37.3,17.23,3.37,33.93-7.87,37.3-25.11.07-.35.13-.7.19-1.05,5.85,7.26,10.93,12.48,15.69,16.15-5.46,6.35-11.54,12.13-18.15,17.28v-.02Z"/><path class="cls-14" d="m163.05,172.7c2.99,4.81,5.82,9.28,8.52,13.5-17.23-3.37-33.93,7.87-37.3,25.1s7.87,33.93,25.1,37.3,33.93-7.87,37.3-25.1c.07-.35.13-.71.19-1.06,3.23,4.09,6.72,7.96,10.44,11.6-9.19,22.96-35.25,34.12-58.21,24.93-22.96-9.19-34.12-35.25-24.93-58.21,6.44-16.09,21.59-27.02,38.89-28.06h0Z"/><circle class="cls-12" cx="159.95" cy="206.4" r="8.03"/><circle class="cls-12" cx="178.73" cy="222.97" r="4.46"/><circle class="cls-12" cx="174.17" cy="232.46" r="2.57"/><path class="cls-15" d="m107.86,217.4c.04-28,20.08-51.97,47.63-56.96,1.88,3.07,3.7,6.04,5.47,8.9-26.53,2.63-45.9,26.27-43.28,52.79.26,2.62.73,5.21,1.42,7.76-1.14-1.75-2.06-3.63-2.73-5.61,0,0,.22,3.48.12,5.34-1.55-3.78-2.43-7.79-2.6-11.87-.1,3.61-.02,6.88.02,11.01-1.46-3.96-1.88-10.65-1.88-10.65-.56,4.13-.72,8.3-.48,12.46-1.1-5.07-1.76-10.22-1.97-15.4-1.2,6.37-.32,14.73-.32,14.73-.91-4.1-1.37-8.29-1.38-12.49h-.03Z"/><path class="cls-4" d="m194.16,237.34c2.49-3.54,4.29-7.52,5.31-11.73,1.87,2.21,3.66,4.2,5.4,6-2.3,6.3-6.09,11.96-11.05,16.47,2.32-2.68,4.3-5.63,5.91-8.79-2.27,2.96-4.79,5.71-7.54,8.24,1.86-2.34,3.5-4.86,4.88-7.52-1.63,2.03-3.48,3.86-5.52,5.47,1.74-2.41,3.14-4.3,4.57-6.46-1.79,2.33-3.97,4.33-6.45,5.9.72-1.14,2.28-3.09,2.28-3.09-1.21.88-2.54,1.61-3.93,2.16,2.33-1.94,4.39-4.18,6.14-6.66h0Zm-60.48-44.58c-2.43,2.58-4.55,5.44-6.29,8.52,6.34-15.21,21.08-25.23,37.56-25.53,1.53,2.44,3.01,4.8,4.46,7.08-15.82-1.69-30.75,7.6-36.23,22.53.05-1.5.29-2.99.71-4.43,0,0-1.31,2.13-2.14,3.19.65-2.86,1.8-5.59,3.39-8.06-1.56,2.07-2.87,4.03-4.55,6.48.83-2.46,1.94-4.82,3.3-7.04-2.04,2.19-3.86,4.58-5.44,7.12,1.45-3.43,3.2-6.73,5.22-9.87h0Z"/><path class="cls-8" d="m229.73,375.33c-4.09,25.52,9.84,77.29,13.01,77.85,5.47.96,7.21-20.2,13.73-42.3,5.03-17.06,11.35-40.28,8.85-46.22-4.19-9.93-29.43-27.75-35.6,10.68h0Zm-35.62-10.26c-2.1,11.02,6.36,30.43,8.7,31.21,2.92.97,5.11-3.33,10.14-12.67,4.5-8.37,12.88-12.97,8.05-18.78-4-4.83-20.55-33.07-26.89.24h0Zm-27.99-22.04c-5.95,6.67-2.9,19.53-.02,22.54,2.65,2.77,8,2.04,13.79-4.14,5.18-5.54,10.16-11.11,6.8-16.44-2.79-4.42-17.62-5.26-20.57-1.96h0Z"/><path class="cls-12" d="m256.47,397.83c1.9-10.46,11.08-31.49,1.9-30.72-1.91.17-15.79-6.26-20.32,0-.98,1.35-5.48,9.66-6.97,12.82-.69,1.47-.25,16.86.02,18.52.77,4.65,1.4,12.64,2.55,17.29.97,3.91,4.92,17.25,7.67,24.55,5.91-5.84,3.38-26.82,4.11-34.46,1.86,5.42.94,12.91,3.19,18.11,2.93-5.44.74-12.18,3.63-17.87,1.45-2.85,3.79-5.43,4.22-8.6"/><path class="cls-8" d="m278.07,356.49c-6.97,12.93,4.75,53.47,7.01,53.86,3.89.66,8.51-4.48,13.36-22.98,3.13-11.93,10.27-21.87,6-29.73-3.54-6.51-19.44-14.02-26.38-1.15h0Z"/><path class="cls-12" d="m295.29,369.67c-2.9,0-5.92-.28-8.81,0-1.36.13-2.51.62-3.87.36-1.17-.22-2.36-2.64-3.42-.1-.49,1.18-2.12-1.1-1.92.23.54,3.74.99,10.14,1.81,13.88.7,3.14,3.5,13.85,5.45,19.72,4.21-4.69,3.07-11.18,3.59-17.3,1.33,4.35,0,0,1.6,4.18,2.09-4.37.54-9.79,2.59-14.35,1.03-2.29,2.7-4.36,3-6.9m-82.3-1.84c-.02,4.88-1.92,26-9.61,26.17-6.74.15-8.08-26.64-5.85-33.83,6.65-1.31,14.12,4.7,15.47,11.1m-33.11-12.15c-2.51,2.13-6.64,7.46-10.41,6.13-3-1.07-5.81-9.32-5.79-11.8,4.29-.7,13.7,2.34,15.25,6.63"/><path class="cls-8" d="m358.12,372.74c0,7.11,9.3,18.64,15.08,18.64s15.09-8.97,15.09-18.64c0-6.56-6.75-27.51-15.08-27.51s-15.09,20.47-15.09,27.51h0Z"/><path class="cls-12" d="m380.47,366.47c-4.71,1.78-11.83-2.23-16.37,1.03-1.31,1.01-2.05,2.59-2,4.24-.29,4.35,1.66,10.64,3.92,14.2-.04-5.85.67-9.12,1.53-18.7,1.03.92.52,3.67.52,5.05,0,4.97.37,9.9.73,14.81,2.03,1.66,3.65-2.84,4.75-4.12,1.9-2.2,3.9-3.41,5.07-6.15,1.28-2.98,3.18-6.87,1.84-9.89"/><path class="cls-8" d="m316.62,378.72c0,6.52,10.33,12.66,14.89,12.66s14.89-7.52,14.89-12.66c0-10.2-6.67-33.42-14.89-33.42s-14.89,23.22-14.89,33.42Z"/><path class="cls-12" d="m338.59,366.47c-4.72,1.78-11.83-2.23-16.37,1.03-1.31,1.01-2.05,2.59-2,4.24-.29,4.35,1.65,10.64,3.92,14.2-.04-5.85.67-9.12,1.53-18.7,1.03.92.52,3.67.52,5.05,0,4.97.38,9.9.73,14.81,2.03,1.66,7.46.65,8.55-.63,1.9-2.21,2.5-6.66,3.67-9.4,1.28-2.97.79-7.11-.56-10.13"/><path class="cls-16" d="m72.27,223c5.95,28.14,10.26,56.61,12.9,85.25.82,8.49-3.33,7.17-3.33,7.17l-9.57-92.42Z"/><path class="cls-17" d="m342.71,234.24c-48.54,10.62-97.19,54.3-97.19,54.3,0,0,50.99-35.82,90.18-43.38,0,0-44.68,18.79-75.12,43.4,47.02-25.19,77.51-35.43,77.51-35.43l-64.4,36.34,66.74-29.26-53.3,30.19,56.44-23.31-44.21,26.57,46.33-18.67-35.4,21.08,35.93-12.45-26.46,14.75,30.73-9.33-21.01,12.76,26.17-7.95-19.58,11.73,24.99-7.65-17.5,10.64,25.74-6.36-19.5,10.5,26.31-6.33-21.05,11.63,28.52-8.07-23.72,12.59,28.6-9.12-24.34,14.12,29.29-10.65-25.31,16.11,28.88-12.9s-1.68-65.25-7.85-68.68c-25.55-3.35-46.38-17.19-46.38-17.19h-.04Z"/><path class="cls-9" d="m369.8,292.41c-1.72,3.49-9.13,2.08-14.02,2.38,6.65-2.06,8.14-5.54,11.01-6.02,2.21-.37,3.59,2.45,3.01,3.64h0Zm-45.99,15.96c-1.72,3.49-9.14,2.08-14.02,2.38,6.66-2.06,8.15-5.54,11.01-6.02,2.21-.37,3.6,2.45,3.01,3.64h0Zm17.46-21.33c-.8,3.81-8.32,4.3-12.98,5.81,5.93-3.66,6.5-7.4,9.15-8.58,2.06-.92,4.1,1.48,3.83,2.77h0Zm-13.01-19.8c-.79,3.81-8.33,4.3-12.98,5.81,5.93-3.66,6.5-7.41,9.15-8.58,2.05-.92,4.1,1.48,3.83,2.77h0Zm22.34,43.49c-.79,3.81-8.32,4.3-12.98,5.81,5.93-3.66,6.5-7.41,9.16-8.58,2.04-.92,4.09,1.48,3.82,2.77h0Zm8.74-42.03c-1.46,3.6-8.96,2.74-13.81,3.4,6.49-2.54,7.72-6.12,10.55-6.81,2.18-.53,3.77,2.18,3.27,3.41h0Zm-47.4,18.83c-1.46,3.61-8.95,2.75-13.81,3.4,6.49-2.54,7.73-6.12,10.55-6.81,2.18-.54,3.76,2.18,3.26,3.41h0Z"/><path class="cls-7" d="m67.5,201.29c-4.97-25.13-22.99-157.11-7.39-162.81,10.62-3.88,70.78,65.2,70.78,65.2,0,0-15.51,10.06-33.33,37.6-3.19,5.05-6.02,10.32-8.46,15.77,5.47-9.17,11.8-17.81,18.9-25.78,5.78-4.7,12.22-8.51,19.25-9.87,7.07-1.3,14.37-.55,21.03,2.17,6.77,2.75,13.1,6.5,18.75,11.14,5.77,4.65,11.17,9.74,16.16,15.22-4.27-6.16-9.24-11.81-14.8-16.83-5.59-5.15-12.03-9.29-19.02-12.26-3.57-1.46-7.32-2.42-11.16-2.86-3.87-.43-7.78-.16-11.55.8-5.2,1.38-9.99,3.99-13.98,7.6,5.63-5.65,11.86-10.68,18.58-14.99,3.67-1.76,7.5-3.16,11.44-4.17,1.92-.45,3.86-.78,5.82-1,1.94-.18,3.89-.24,5.83-.17,7.82.41,15.44,2.66,22.23,6.57,6.95,3.99,13.3,8.94,18.86,14.71,5.72,5.85,10.89,12.2,15.46,18.98-3.2-7.71-7.51-14.91-12.81-21.36-5.34-6.61-11.78-12.23-19.05-16.63-3.71-2.2-7.67-3.95-11.8-5.21-4.19-1.25-8.55-1.8-12.91-1.63-1.42.07-2.83.23-4.23.47,27.48-10.47,59.7-10.02,99.16-7.02,48.22,3.68,69.56-23.27,138.66-28.72-71.05,0-98.31,14.03-148.39,14.03-87.6,0-131.05-58.75-181.08-58.75-17.14.01-3.47,124.77,9.06,179.83l-.02-.02Zm12.54-161.75l59.57,49.24-42.35-42.7,49.68,39.56-33.15-33.7,40.29,31.39-22.38-22.3,29.61,20.86-14.12-15.15,19.97,14.12-4.13-6.89,15.15,8.61s-28.97,7.39-38.9,14.8l-59.22-57.84Z"/><path class="cls-9" d="m185.43,332.43c-3.87-.39-7.74-.84-11.6-1.29-7.72-.89-15.44-1.85-23.13-2.55-3.84-.32-7.68-.6-11.47-.6-3.67-.11-7.33.42-10.82,1.58-1.59.62-3.04,1.56-4.26,2.76-1.22,1.3-2.25,2.78-3.03,4.39-1.69,3.32-2.86,7.06-4.27,10.73.09-3.98.75-7.92,1.97-11.71.67-2.01,1.7-3.87,3.06-5.49,1.42-1.67,3.22-2.98,5.26-3.8,1.94-.8,3.99-1.31,6.08-1.52,2-.22,4.02-.32,6.03-.3,3.95.05,7.88.33,11.8.82,7.78.9,15.46,2.2,23.13,3.58,3.83.69,7.66,1.43,11.47,2.21,3.82.77,7.64,1.52,11.44,2.37-3.88-.32-7.75-.75-11.62-1.16h-.04Zm109.94,4.77c-6.38.38-12.75.63-19.12.57-6.37-.08-12.73-.37-19.06-.87-12.66-1.18-25.25-3.07-37.7-5.68l-18.74-3.88c-6.26-1.28-12.52-2.61-18.85-3.64-12.63-2.11-25.52-3.34-38.33-2.56,12.72,1.64,25.25,3.55,37.75,5.89,6.25,1.18,12.51,2.35,18.77,3.62s12.52,2.55,18.82,3.68c12.6,2.43,25.35,3.98,38.16,4.65,6.41.33,12.82.34,19.23.02,6.4-.31,12.78-.89,19.1-1.79h-.02Zm37.9-10.89c-9.2.49-18.39,1.14-27.56,1.81s-18.34,1.35-27.49,1.6c-9.14.22-18.29-.14-27.38-1.09-9.12-.9-18.26-2.03-27.45-2.85,8.99,2.07,18.02,3.89,27.18,5.17,9.18,1.31,18.46,1.78,27.73,1.41,9.26-.33,18.44-1.27,27.59-2.32,9.15-1.08,18.28-2.32,27.39-3.73v.02Zm35.67-152.75c1-.06,2.03-.1,3.1-.1-1.06,0-2.08.05-3.1.1Zm56.62,0c-1.02-.05-2.04-.1-3.11-.1,1.07,0,2.1.04,3.11.1Z"/><path class="cls-5" d="m322.98,131.5c-2.65-2.21-5.08-4.68-7.25-7.36-2.23-2.68-4.12-5.62-5.63-8.76-1.57-3.18-2.53-6.63-2.84-10.16-.31-3.61.53-7.22,2.4-10.32,1.91-2.93,4.7-5.18,7.97-6.42-2.75,1.81-4.98,4.32-6.45,7.26-1.29,2.89-1.71,6.09-1.2,9.21.88,6.29,4.26,12.08,8.22,17.19,4.13,5.11,8.99,9.58,14.43,13.28,5.5,3.77,11.52,6.72,17.87,8.76-6.77-.96-13.27-3.25-19.15-6.74-2.97-1.72-5.79-3.7-8.41-5.92h.04Zm-29.63,15.27c-2.32-2.27-4.54-4.66-6.75-7.09-4.33-5.07-9.05-9.79-14.12-14.12-5.18-4.28-11.11-7.57-17.49-9.69,5.64,3.33,10.9,7.28,15.69,11.76,4.79,4.4,9.02,9.38,13.56,14.22,1.59,1.72,3.23,3.42,4.94,5.07-4.1-3.14-8.11-6.43-12.16-9.7-6.15-5.16-12.61-9.94-19.35-14.29-6.78-4.38-14.22-7.64-22.04-9.66,7.21,3.3,14.08,7.3,20.51,11.94,6.47,4.53,12.59,9.57,18.85,14.5,3.12,2.49,6.25,4.97,9.5,7.34,3.22,2.42,6.57,4.66,10.03,6.73,6.91,4.11,14.63,7.34,22.67,7.87-.54-.12-1.07-.27-1.6-.41.87.17,1.75.3,2.64.42-6.26-1.91-12.18-4.81-17.52-8.6-2.61-1.91-5.08-4.01-7.39-6.27l.02-.02Zm103.9,19.63v-90.78s-3.46,81.72-3.46,81.72l-2.08-69.33-3.42,41.36c-.6,4-2.23,8.07-4.11,9.37,1.49-5.34,1.43-11.43,1.05-17.82-2.96,17.2-8.21,24.34-13.86,26.57-3.38,1.33-6.97,1.58-13.38.86-22.88-2.6-34.53-9.63-51.17-29.65,3.54,8.32,14.98,21.32,21.72,27.01-8.95-5.51-25.09-17.6-32.63-30.14,5.63,14.15,11.37,24.85,19.82,32.24-4.93-2.67-17.71-12.15-26.08-25.23,9.32,33.78,46.27,40.05,46.27,40.05,0,0-36.67,16.98-50.48,17.16-15.04.2-25.48-4.37-34.08-9.33,7.52,5.67,12.68,12.83,22.83,16.6-13.77-3.59-34.47-13.09-50.54-25.48,12.67,16.83,31.59,24.41,39.27,28.76-32.09,4.8-59.77-40.58-79.69-48.8,15.17,10.09,32.06,44.93,57.64,63.04-42.19-5.54-70.13-96.82-128.1-70.05,53.54-19.06,72.27,86.34,125.11,97.94,1.46-1.02,2.89-2.04,4.3-3.09,5.21-3.85,10.34-7.87,15.49-11.87-2.23.48-4.5.77-6.78.87-6.43.27-12.84-.85-18.8-3.26-5.88-2.32-11.36-5.54-16.25-9.54-4.84-3.92-9.2-8.41-12.98-13.36,4.52,4.16,9.33,7.99,14.39,11.46,4.97,3.44,10.34,6.24,16,8.34,5.6,2,11.53,2.9,17.47,2.65,5.45-.34,10.8-1.66,15.79-3.89.9-.67,1.78-1.35,2.67-2.01.7-.51,1.41-1,2.1-1.51-.35.14-.7.3-1.05.44-4.04,1.69-8.28,2.87-12.62,3.5-4.37.53-8.8,0-12.92-1.53,4.19.42,8.42.15,12.52-.8,4.03-1.07,7.96-2.5,11.73-4.27,6.21-2.82,12.35-5.93,18.58-8.9,1.18-.84,2.4-1.66,3.66-2.48-1.58.03-3.16-.07-4.72-.31-1.88-.19-3.66-.9-5.15-2.06,1.57.97,3.38,1.48,5.22,1.46,1.82.08,3.65-.01,5.46-.28.49-.07.98-.16,1.46-.25.42-.26.84-.52,1.27-.78-.55,0-1.1,0-1.65-.02-2-.09-3.98-.38-5.92-.86-1.95-.4-3.78-1.25-5.34-2.48,1.65,1.05,3.52,1.7,5.46,1.89,1.92.27,3.86.36,5.79.25.99-.06,1.98-.16,2.96-.29-1.04-.14-2.07-.34-3.08-.59-1.95-.4-3.78-1.25-5.34-2.48,1.65,1.04,3.52,1.69,5.46,1.88,1.92.27,3.86.35,5.79.24.05,0,.1,0,.15,0,3.16-1.73,6.52-3.41,10.12-5,8.73-3.74,17.79-6.7,27.05-8.83,19.92-5.49,40.49-8.3,61.15-8.38l-.06.08Z"/><path class="cls-9" d="m390.33,248.05l6.92-60.2h.01l6.92,60.19-6.92,104.87h-.02l-6.92-104.87"/><path class="cls-3" d="m249.76,267.06c1.18-1.56,2.41-3.08,3.73-4.55.76-.85,1.57-1.66,2.4-2.46-4.22,3.14-8.41,6.33-12.5,9.65-5.69,4.59-11.21,9.37-16.68,14.36,4.33-6.02,9.27-11.58,14.74-16.58.61-.56,1.23-1.1,1.85-1.65-1.56,1.36-3.12,2.74-4.65,4.16,3.57-5.36,7.82-10.25,12.65-14.52,1.06-.96,2.15-1.9,3.24-2.82-2.22,1.79-4.42,3.62-6.58,5.51-3.63,3.15-7.15,6.44-10.88,9.65,2.51-4.22,5.47-8.17,8.83-11.76,3.35-3.61,7.04-6.9,11.01-9.82,3.95-2.91,8.1-5.53,12.43-7.85,4.29-2.34,8.72-4.41,13.26-6.21-3.87,3-7.89,5.74-11.85,8.51-1.88,1.32-3.76,2.64-5.63,3.96.47-.32.93-.65,1.4-.96,5.32-3.58,10.85-6.85,16.54-9.81,5.66-2.99,11.51-5.62,17.51-7.87l-16.17,10.2c-5.35,3.42-10.67,6.85-15.88,10.43-2.84,1.97-5.66,3.96-8.45,5.99,5.61-3.94,11.42-7.58,17.41-10.91,6.44-3.63,13.12-6.81,20-9.52-6.26,3.91-12.48,7.8-18.6,11.83-3.68,2.43-7.32,4.89-10.92,7.4,1.65-.93,3.33-1.81,5.03-2.64,3.55-1.78,7.2-3.33,10.94-4.65-3.09,2.53-6.34,4.78-9.59,6.98-1.19.81-2.38,1.6-3.58,2.4,2.57-1.18,5.18-2.27,7.87-3.2-3.09,2.52-6.34,4.77-9.59,6.98-3.25,2.21-6.54,4.32-9.69,6.52-3.15,2.23-6.17,4.52-9.1,7.06-2.96,2.51-5.92,5.14-9.19,7.46,2.08-3.4,4.47-6.6,7.14-9.57.5-.55,1.03-1.08,1.56-1.63v-.07Z"/><path class="cls-17" d="m85.28,200.69c6.22-2.36,8.53-2.84,20.16-7.58l-4.9,3.56c-1,28.85-8.47,34.33-3.5,52.53,3.53,12.92-6.81,19.02,13.6,29.19-11.09,5.68-12.6,18.59-13.22,26.31-.75,9.47,3.73,13.26,11.71,16.44-3.35,3.03-4.5,8.13-5.06,12.7-.66,5.34,1.33,14.96,4.06,19.27,9.92,15.69,16.25,13.86,21.83,18.48,9.07,7.51,1.81,17.89,8.88,28.28,7.51,11.05,12.39,23.37,8.4,37.69-10.52,1.39-24.37-5.02-34.5-6.97-8.78-1.69-17.46-3.03-25.47-5.25-12.98-37.21-11.32-91.28-7.31-109.88-2.63-17.25-8.07-84.72-11.47-108.03,5.8-1.94,11.3-4.62,16.83-6.71l-.04-.03Z"/><path class="cls-9" d="m101.11,383.02c-1.95-10.29-.44-26.39.93-34.48,1.22-8.1,3.75-15.95,7.47-23.24,1.9-3.63,4.22-7.02,6.92-10.1,2.76-3.08,5.95-5.74,9.47-7.9,3.58-2.18,7.5-3.75,11.59-4.65,2.06-.47,4.16-.74,6.27-.8,2.12-.12,4.25.09,6.3.64-4.07-1.3-8.47-1.17-12.71-.67-4.3.6-8.48,1.84-12.4,3.69-7.96,3.91-14.77,9.8-19.77,17.12-4.99,7.35-8.84,15.41-11.42,23.91-2.6,8.43-4.49,17.07-5.66,25.82l12.99,10.67Zm-17.86-38.52c.25-6.32.64-12.6,1.45-18.82.72-6.21,1.93-12.36,3.63-18.38.85-2.99,1.91-5.92,3.17-8.76,1.29-2.83,2.88-5.5,4.75-7.98,1.92-2.49,4.17-4.71,6.68-6.61,2.49-1.97,5.24-3.65,7.8-5.56-2.68,1.74-5.53,3.18-8.28,4.86-2.79,1.68-5.39,3.68-7.73,5.95-2.35,2.32-4.44,4.89-6.24,7.66-1.83,2.75-3.47,5.62-4.91,8.6-2.8,5.95-5.21,12.08-7.2,18.35-2,6.24.07,12.12-1.53,18.44l8.41,2.27Z"/></svg>