<?xml version="1.0" encoding="UTF-8"?><svg id="Layer_1" xmlns="http://www.w3.org/2000/svg" xmlns:xlink="http://www.w3.org/1999/xlink" viewBox="0 0 400 310"><defs><style>.cls-1{fill:url(#linear-gradient);}.cls-1,.cls-2,.cls-3,.cls-4,.cls-5,.cls-6,.cls-7,.cls-8,.cls-9,.cls-10,.cls-11,.cls-12,.cls-13,.cls-14,.cls-15,.cls-16,.cls-17,.cls-18,.cls-19,.cls-20,.cls-21,.cls-22,.cls-23,.cls-24,.cls-25,.cls-26,.cls-27,.cls-28,.cls-29,.cls-30,.cls-31,.cls-32,.cls-33,.cls-34,.cls-35,.cls-36,.cls-37,.cls-38,.cls-39,.cls-40,.cls-41,.cls-42,.cls-43,.cls-44{stroke-width:0px;}.cls-2{fill:url(#linear-gradient-38);}.cls-3{fill:url(#linear-gradient-33);}.cls-4{fill:url(#linear-gradient-29);}.cls-5{fill:url(#linear-gradient-32);}.cls-6{fill:url(#linear-gradient-30);}.cls-7{fill:url(#linear-gradient-31);}.cls-8{fill:url(#linear-gradient-36);}.cls-9{fill:url(#linear-gradient-39);}.cls-10{fill:url(#linear-gradient-34);}.cls-11{fill:url(#linear-gradient-37);}.cls-12{fill:url(#linear-gradient-35);}.cls-13{fill:url(#linear-gradient-28);}.cls-14{fill:url(#linear-gradient-25);}.cls-15{fill:url(#linear-gradient-11);}.cls-16{fill:url(#linear-gradient-12);}.cls-17{fill:url(#linear-gradient-13);}.cls-18{fill:url(#linear-gradient-10);}.cls-19{fill:url(#linear-gradient-17);}.cls-20{fill:url(#linear-gradient-16);}.cls-21{fill:url(#linear-gradient-19);}.cls-22{fill:url(#linear-gradient-15);}.cls-23{fill:url(#linear-gradient-23);}.cls-24{fill:url(#linear-gradient-21);}.cls-25{fill:url(#linear-gradient-18);}.cls-26{fill:url(#linear-gradient-14);}.cls-27{fill:url(#linear-gradient-22);}.cls-28{fill:url(#linear-gradient-20);}.cls-29{fill:url(#linear-gradient-27);}.cls-30{fill:url(#linear-gradient-24);}.cls-31{fill:url(#linear-gradient-26);}.cls-32{fill:url(#linear-gradient-42);}.cls-33{fill:url(#linear-gradient-40);}.cls-34{fill:url(#linear-gradient-41);}.cls-35{fill:url(#linear-gradient-4);}.cls-36{fill:url(#linear-gradient-2);}.cls-37{fill:url(#linear-gradient-3);}.cls-38{fill:url(#linear-gradient-8);}.cls-39{fill:url(#linear-gradient-9);}.cls-40{fill:url(#linear-gradient-7);}.cls-41{fill:url(#linear-gradient-5);}.cls-42{fill:url(#linear-gradient-6);}.cls-43{fill:#12110c;}.cls-44{fill:#fff;}</style><linearGradient id="linear-gradient" x1="80.03" y1="204.55" x2="80.03" y2="180.06" gradientTransform="translate(0 402) scale(1 -1)" gradientUnits="userSpaceOnUse"><stop offset="0" stop-color="#95ffff"/><stop offset=".14" stop-color="#70eaef"/><stop offset=".44" stop-color="#15b6c8"/><stop offset=".5" stop-color="#00aac0"/><stop offset=".62" stop-color="#00b3bc"/><stop offset=".82" stop-color="#00ccb2"/><stop offset=".94" stop-color="#00dfab"/></linearGradient><linearGradient id="linear-gradient-2" x1="114.14" y1="161.64" x2="114.14" y2="140.49" gradientTransform="translate(0 402) scale(1 -1)" gradientUnits="userSpaceOnUse"><stop offset="0" stop-color="#95ffff"/><stop offset=".14" stop-color="#70eaef"/><stop offset=".44" stop-color="#15b6c8"/><stop offset=".5" stop-color="#00aac0"/><stop offset=".62" stop-color="#00b3bc"/><stop offset=".82" stop-color="#00ccb2"/><stop offset=".94" stop-color="#00dfab"/></linearGradient><linearGradient id="linear-gradient-3" x1="49.91" y1="191.2" x2="49.91" y2="166.69" gradientTransform="translate(0 402) scale(1 -1)" gradientUnits="userSpaceOnUse"><stop offset="0" stop-color="#95ffff"/><stop offset=".14" stop-color="#70eaef"/><stop offset=".44" stop-color="#15b6c8"/><stop offset=".5" stop-color="#00aac0"/><stop offset=".62" stop-color="#00b3bc"/><stop offset=".82" stop-color="#00ccb2"/><stop offset=".94" stop-color="#00dfab"/></linearGradient><linearGradient id="linear-gradient-4" x1="114.15" y1="186.39" x2="114.15" y2="166.94" gradientTransform="translate(0 402) scale(1 -1)" gradientUnits="userSpaceOnUse"><stop offset="0" stop-color="#95ffff"/><stop offset=".14" stop-color="#70eaef"/><stop offset=".44" stop-color="#15b6c8"/><stop offset=".5" stop-color="#00aac0"/><stop offset=".62" stop-color="#00b3bc"/><stop offset=".82" stop-color="#00ccb2"/><stop offset=".94" stop-color="#00dfab"/></linearGradient><linearGradient id="linear-gradient-5" x1="79.84" y1="215.19" x2="79.84" y2="195.45" gradientTransform="translate(0 402) scale(1 -1)" gradientUnits="userSpaceOnUse"><stop offset="0" stop-color="#95ffff"/><stop offset=".14" stop-color="#70eaef"/><stop offset=".44" stop-color="#15b6c8"/><stop offset=".5" stop-color="#00aac0"/><stop offset=".62" stop-color="#00b3bc"/><stop offset=".82" stop-color="#00ccb2"/><stop offset=".94" stop-color="#00dfab"/></linearGradient><linearGradient id="linear-gradient-6" x1="114.16" y1="173.68" x2="114.16" y2="154.58" gradientTransform="translate(0 402) scale(1 -1)" gradientUnits="userSpaceOnUse"><stop offset="0" stop-color="#95ffff"/><stop offset=".14" stop-color="#70eaef"/><stop offset=".44" stop-color="#15b6c8"/><stop offset=".5" stop-color="#00aac0"/><stop offset=".62" stop-color="#00b3bc"/><stop offset=".82" stop-color="#00ccb2"/><stop offset=".94" stop-color="#00dfab"/></linearGradient><linearGradient id="linear-gradient-7" x1="45.94" y1="156.26" x2="45.94" y2="122.38" gradientTransform="translate(0 402) scale(1 -1)" gradientUnits="userSpaceOnUse"><stop offset="0" stop-color="#95ffff"/><stop offset=".14" stop-color="#70eaef"/><stop offset=".44" stop-color="#15b6c8"/><stop offset=".5" stop-color="#00aac0"/><stop offset=".62" stop-color="#00b3bc"/><stop offset=".82" stop-color="#00ccb2"/><stop offset=".94" stop-color="#00dfab"/></linearGradient><linearGradient id="linear-gradient-8" x1="80.05" y1="324.56" x2="80.05" y2="203.34" gradientTransform="translate(0 402) scale(1 -1)" gradientUnits="userSpaceOnUse"><stop offset="0" stop-color="#95ffff"/><stop offset=".14" stop-color="#70eaef"/><stop offset=".44" stop-color="#15b6c8"/><stop offset=".5" stop-color="#00aac0"/><stop offset=".62" stop-color="#00b3bc"/><stop offset=".82" stop-color="#00ccb2"/><stop offset=".94" stop-color="#00dfab"/></linearGradient><linearGradient id="linear-gradient-9" x1="45.93" y1="141.95" x2="45.93" y2="113.41" gradientTransform="translate(0 402) scale(1 -1)" gradientUnits="userSpaceOnUse"><stop offset="0" stop-color="#95ffff"/><stop offset=".14" stop-color="#70eaef"/><stop offset=".44" stop-color="#15b6c8"/><stop offset=".5" stop-color="#00aac0"/><stop offset=".62" stop-color="#00b3bc"/><stop offset=".82" stop-color="#00ccb2"/><stop offset=".94" stop-color="#00dfab"/></linearGradient><linearGradient id="linear-gradient-10" x1="45.94" y1="179.26" x2="45.94" y2="154.33" gradientTransform="translate(0 402) scale(1 -1)" gradientUnits="userSpaceOnUse"><stop offset="0" stop-color="#95ffff"/><stop offset=".14" stop-color="#70eaef"/><stop offset=".44" stop-color="#15b6c8"/><stop offset=".5" stop-color="#00aac0"/><stop offset=".62" stop-color="#00b3bc"/><stop offset=".82" stop-color="#00ccb2"/><stop offset=".94" stop-color="#00dfab"/></linearGradient><linearGradient id="linear-gradient-11" x1="114.15" y1="132.96" x2="114.15" y2="113.91" gradientTransform="translate(0 402) scale(1 -1)" gradientUnits="userSpaceOnUse"><stop offset="0" stop-color="#95ffff"/><stop offset=".14" stop-color="#70eaef"/><stop offset=".44" stop-color="#15b6c8"/><stop offset=".5" stop-color="#00aac0"/><stop offset=".62" stop-color="#00b3bc"/><stop offset=".82" stop-color="#00ccb2"/><stop offset=".94" stop-color="#00dfab"/></linearGradient><linearGradient id="linear-gradient-12" x1="45.94" y1="168.01" x2="45.94" y2="140.18" gradientTransform="translate(0 402) scale(1 -1)" gradientUnits="userSpaceOnUse"><stop offset="0" stop-color="#95ffff"/><stop offset=".14" stop-color="#70eaef"/><stop offset=".44" stop-color="#15b6c8"/><stop offset=".5" stop-color="#00aac0"/><stop offset=".62" stop-color="#00b3bc"/><stop offset=".82" stop-color="#00ccb2"/><stop offset=".94" stop-color="#00dfab"/></linearGradient><linearGradient id="linear-gradient-13" x1="114.14" y1="149.1" x2="114.14" y2="122.73" gradientTransform="translate(0 402) scale(1 -1)" gradientUnits="userSpaceOnUse"><stop offset="0" stop-color="#95ffff"/><stop offset=".14" stop-color="#70eaef"/><stop offset=".44" stop-color="#15b6c8"/><stop offset=".5" stop-color="#00aac0"/><stop offset=".62" stop-color="#00b3bc"/><stop offset=".82" stop-color="#00ccb2"/><stop offset=".94" stop-color="#00dfab"/></linearGradient><linearGradient id="linear-gradient-14" x1="296.85" y1="201.34" x2="296.85" y2="180.25" gradientTransform="translate(0 402) scale(1 -1)" gradientUnits="userSpaceOnUse"><stop offset="0" stop-color="#95ffff"/><stop offset=".14" stop-color="#70eaef"/><stop offset=".44" stop-color="#15b6c8"/><stop offset=".5" stop-color="#00aac0"/><stop offset=".62" stop-color="#00b3bc"/><stop offset=".82" stop-color="#00ccb2"/><stop offset=".94" stop-color="#00dfab"/></linearGradient><linearGradient id="linear-gradient-15" x1="296.85" y1="162.9" x2="296.85" y2="140.42" gradientTransform="translate(0 402) scale(1 -1)" gradientUnits="userSpaceOnUse"><stop offset="0" stop-color="#95ffff"/><stop offset=".14" stop-color="#70eaef"/><stop offset=".44" stop-color="#15b6c8"/><stop offset=".5" stop-color="#00aac0"/><stop offset=".62" stop-color="#00b3bc"/><stop offset=".82" stop-color="#00ccb2"/><stop offset=".94" stop-color="#00dfab"/></linearGradient><linearGradient id="linear-gradient-16" x1="296.85" y1="187.36" x2="296.85" y2="166.88" gradientTransform="translate(0 402) scale(1 -1)" gradientUnits="userSpaceOnUse"><stop offset="0" stop-color="#95ffff"/><stop offset=".14" stop-color="#70eaef"/><stop offset=".44" stop-color="#15b6c8"/><stop offset=".5" stop-color="#00aac0"/><stop offset=".62" stop-color="#00b3bc"/><stop offset=".82" stop-color="#00ccb2"/><stop offset=".94" stop-color="#00dfab"/></linearGradient><linearGradient id="linear-gradient-17" x1="296.85" y1="174.8" x2="296.85" y2="154.51" gradientTransform="translate(0 402) scale(1 -1)" gradientUnits="userSpaceOnUse"><stop offset="0" stop-color="#95ffff"/><stop offset=".14" stop-color="#70eaef"/><stop offset=".44" stop-color="#15b6c8"/><stop offset=".5" stop-color="#00aac0"/><stop offset=".62" stop-color="#00b3bc"/><stop offset=".82" stop-color="#00ccb2"/><stop offset=".94" stop-color="#00dfab"/></linearGradient><linearGradient id="linear-gradient-18" x1="296.85" y1="324.56" x2="296.85" y2="203.34" gradientTransform="translate(0 402) scale(1 -1)" gradientUnits="userSpaceOnUse"><stop offset="0" stop-color="#95ffff"/><stop offset=".14" stop-color="#70eaef"/><stop offset=".44" stop-color="#15b6c8"/><stop offset=".5" stop-color="#00aac0"/><stop offset=".62" stop-color="#00b3bc"/><stop offset=".82" stop-color="#00ccb2"/><stop offset=".94" stop-color="#00dfab"/></linearGradient><linearGradient id="linear-gradient-19" x1="296.85" y1="134.74" x2="296.85" y2="113.81" gradientTransform="translate(0 402) scale(1 -1)" gradientUnits="userSpaceOnUse"><stop offset="0" stop-color="#95ffff"/><stop offset=".14" stop-color="#70eaef"/><stop offset=".44" stop-color="#15b6c8"/><stop offset=".5" stop-color="#00aac0"/><stop offset=".62" stop-color="#00b3bc"/><stop offset=".82" stop-color="#00ccb2"/><stop offset=".94" stop-color="#00dfab"/></linearGradient><linearGradient id="linear-gradient-20" x1="296.85" y1="213.06" x2="296.85" y2="195.57" gradientTransform="translate(0 402) scale(1 -1)" gradientUnits="userSpaceOnUse"><stop offset="0" stop-color="#95ffff"/><stop offset=".14" stop-color="#70eaef"/><stop offset=".44" stop-color="#15b6c8"/><stop offset=".5" stop-color="#00aac0"/><stop offset=".62" stop-color="#00b3bc"/><stop offset=".82" stop-color="#00ccb2"/><stop offset=".94" stop-color="#00dfab"/></linearGradient><linearGradient id="linear-gradient-21" x1="296.85" y1="150.52" x2="296.85" y2="122.66" gradientTransform="translate(0 402) scale(1 -1)" gradientUnits="userSpaceOnUse"><stop offset="0" stop-color="#95ffff"/><stop offset=".14" stop-color="#70eaef"/><stop offset=".44" stop-color="#15b6c8"/><stop offset=".5" stop-color="#00aac0"/><stop offset=".62" stop-color="#00b3bc"/><stop offset=".82" stop-color="#00ccb2"/><stop offset=".94" stop-color="#00dfab"/></linearGradient><linearGradient id="linear-gradient-22" x1="354.09" y1="179.27" x2="354.09" y2="154.91" gradientTransform="translate(0 402) scale(1 -1)" gradientUnits="userSpaceOnUse"><stop offset="0" stop-color="#95ffff"/><stop offset=".14" stop-color="#70eaef"/><stop offset=".44" stop-color="#15b6c8"/><stop offset=".5" stop-color="#00aac0"/><stop offset=".62" stop-color="#00b3bc"/><stop offset=".82" stop-color="#00ccb2"/><stop offset=".94" stop-color="#00dfab"/></linearGradient><linearGradient id="linear-gradient-23" x1="354.09" y1="324.55" x2="354.09" y2="203.61" gradientTransform="translate(0 402) scale(1 -1)" gradientUnits="userSpaceOnUse"><stop offset="0" stop-color="#95ffff"/><stop offset=".14" stop-color="#70eaef"/><stop offset=".44" stop-color="#15b6c8"/><stop offset=".5" stop-color="#00aac0"/><stop offset=".62" stop-color="#00b3bc"/><stop offset=".82" stop-color="#00ccb2"/><stop offset=".94" stop-color="#00dfab"/></linearGradient><linearGradient id="linear-gradient-24" x1="354.09" y1="156.24" x2="354.09" y2="123.14" gradientTransform="translate(0 402) scale(1 -1)" gradientUnits="userSpaceOnUse"><stop offset="0" stop-color="#95ffff"/><stop offset=".14" stop-color="#70eaef"/><stop offset=".44" stop-color="#15b6c8"/><stop offset=".5" stop-color="#00aac0"/><stop offset=".62" stop-color="#00b3bc"/><stop offset=".82" stop-color="#00ccb2"/><stop offset=".94" stop-color="#00dfab"/></linearGradient><linearGradient id="linear-gradient-25" x1="354.09" y1="167.99" x2="354.09" y2="140.78" gradientTransform="translate(0 402) scale(1 -1)" gradientUnits="userSpaceOnUse"><stop offset="0" stop-color="#95ffff"/><stop offset=".14" stop-color="#70eaef"/><stop offset=".44" stop-color="#15b6c8"/><stop offset=".5" stop-color="#00aac0"/><stop offset=".62" stop-color="#00b3bc"/><stop offset=".82" stop-color="#00ccb2"/><stop offset=".94" stop-color="#00dfab"/></linearGradient><linearGradient id="linear-gradient-26" x1="354.09" y1="191.19" x2="354.09" y2="167.17" gradientTransform="translate(0 402) scale(1 -1)" gradientUnits="userSpaceOnUse"><stop offset="0" stop-color="#95ffff"/><stop offset=".14" stop-color="#70eaef"/><stop offset=".44" stop-color="#15b6c8"/><stop offset=".5" stop-color="#00aac0"/><stop offset=".62" stop-color="#00b3bc"/><stop offset=".82" stop-color="#00ccb2"/><stop offset=".94" stop-color="#00dfab"/></linearGradient><linearGradient id="linear-gradient-27" x1="354.09" y1="141.95" x2="354.09" y2="113.41" gradientTransform="translate(0 402) scale(1 -1)" gradientUnits="userSpaceOnUse"><stop offset="0" stop-color="#95ffff"/><stop offset=".14" stop-color="#70eaef"/><stop offset=".44" stop-color="#15b6c8"/><stop offset=".5" stop-color="#00aac0"/><stop offset=".62" stop-color="#00b3bc"/><stop offset=".82" stop-color="#00ccb2"/><stop offset=".94" stop-color="#00dfab"/></linearGradient><linearGradient id="linear-gradient-28" x1="354.09" y1="215.17" x2="354.09" y2="195.86" gradientTransform="translate(0 402) scale(1 -1)" gradientUnits="userSpaceOnUse"><stop offset="0" stop-color="#95ffff"/><stop offset=".14" stop-color="#70eaef"/><stop offset=".44" stop-color="#15b6c8"/><stop offset=".5" stop-color="#00aac0"/><stop offset=".62" stop-color="#00b3bc"/><stop offset=".82" stop-color="#00ccb2"/><stop offset=".94" stop-color="#00dfab"/></linearGradient><linearGradient id="linear-gradient-29" x1="354.09" y1="204.53" x2="354.09" y2="180.5" gradientTransform="translate(0 402) scale(1 -1)" gradientUnits="userSpaceOnUse"><stop offset="0" stop-color="#95ffff"/><stop offset=".14" stop-color="#70eaef"/><stop offset=".44" stop-color="#15b6c8"/><stop offset=".5" stop-color="#00aac0"/><stop offset=".62" stop-color="#00b3bc"/><stop offset=".82" stop-color="#00ccb2"/><stop offset=".94" stop-color="#00dfab"/></linearGradient><linearGradient id="linear-gradient-30" x1="239.62" y1="179.13" x2="239.62" y2="157.75" gradientTransform="translate(0 402) scale(1 -1)" gradientUnits="userSpaceOnUse"><stop offset="0" stop-color="#95ffff"/><stop offset=".14" stop-color="#70eaef"/><stop offset=".44" stop-color="#15b6c8"/><stop offset=".5" stop-color="#00aac0"/><stop offset=".62" stop-color="#00b3bc"/><stop offset=".82" stop-color="#00ccb2"/><stop offset=".94" stop-color="#00dfab"/></linearGradient><linearGradient id="linear-gradient-31" x1="171.39" y1="179.23" x2="171.39" y2="155.35" gradientTransform="translate(0 402) scale(1 -1)" gradientUnits="userSpaceOnUse"><stop offset="0" stop-color="#95ffff"/><stop offset=".14" stop-color="#70eaef"/><stop offset=".44" stop-color="#15b6c8"/><stop offset=".5" stop-color="#00aac0"/><stop offset=".62" stop-color="#00b3bc"/><stop offset=".82" stop-color="#00ccb2"/><stop offset=".94" stop-color="#00dfab"/></linearGradient><linearGradient id="linear-gradient-32" x1="205.51" y1="204.5" x2="205.51" y2="180.81" gradientTransform="translate(0 402) scale(1 -1)" gradientUnits="userSpaceOnUse"><stop offset="0" stop-color="#95ffff"/><stop offset=".14" stop-color="#70eaef"/><stop offset=".44" stop-color="#15b6c8"/><stop offset=".5" stop-color="#00aac0"/><stop offset=".62" stop-color="#00b3bc"/><stop offset=".82" stop-color="#00ccb2"/><stop offset=".94" stop-color="#00dfab"/></linearGradient><linearGradient id="linear-gradient-33" x1="171.4" y1="167.97" x2="171.4" y2="141.2" gradientTransform="translate(0 402) scale(1 -1)" gradientUnits="userSpaceOnUse"><stop offset="0" stop-color="#95ffff"/><stop offset=".14" stop-color="#70eaef"/><stop offset=".44" stop-color="#15b6c8"/><stop offset=".5" stop-color="#00aac0"/><stop offset=".62" stop-color="#00b3bc"/><stop offset=".82" stop-color="#00ccb2"/><stop offset=".94" stop-color="#00dfab"/></linearGradient><linearGradient id="linear-gradient-34" x1="239.62" y1="191.07" x2="239.62" y2="169.32" gradientTransform="translate(0 402) scale(1 -1)" gradientUnits="userSpaceOnUse"><stop offset="0" stop-color="#95ffff"/><stop offset=".14" stop-color="#70eaef"/><stop offset=".44" stop-color="#15b6c8"/><stop offset=".5" stop-color="#00aac0"/><stop offset=".62" stop-color="#00b3bc"/><stop offset=".82" stop-color="#00ccb2"/><stop offset=".94" stop-color="#00dfab"/></linearGradient><linearGradient id="linear-gradient-35" x1="171.39" y1="191.15" x2="171.39" y2="167.52" gradientTransform="translate(0 402) scale(1 -1)" gradientUnits="userSpaceOnUse"><stop offset="0" stop-color="#95ffff"/><stop offset=".14" stop-color="#70eaef"/><stop offset=".44" stop-color="#15b6c8"/><stop offset=".5" stop-color="#00aac0"/><stop offset=".62" stop-color="#00b3bc"/><stop offset=".82" stop-color="#00ccb2"/><stop offset=".94" stop-color="#00dfab"/></linearGradient><linearGradient id="linear-gradient-36" x1="171.4" y1="156.21" x2="171.4" y2="123.67" gradientTransform="translate(0 402) scale(1 -1)" gradientUnits="userSpaceOnUse"><stop offset="0" stop-color="#95ffff"/><stop offset=".14" stop-color="#70eaef"/><stop offset=".44" stop-color="#15b6c8"/><stop offset=".5" stop-color="#00aac0"/><stop offset=".62" stop-color="#00b3bc"/><stop offset=".82" stop-color="#00ccb2"/><stop offset=".94" stop-color="#00dfab"/></linearGradient><linearGradient id="linear-gradient-37" x1="205.5" y1="324.56" x2="205.5" y2="203.34" gradientTransform="translate(0 402) scale(1 -1)" gradientUnits="userSpaceOnUse"><stop offset="0" stop-color="#95ffff"/><stop offset=".14" stop-color="#70eaef"/><stop offset=".44" stop-color="#15b6c8"/><stop offset=".5" stop-color="#00aac0"/><stop offset=".62" stop-color="#00b3bc"/><stop offset=".82" stop-color="#00ccb2"/><stop offset=".94" stop-color="#00dfab"/></linearGradient><linearGradient id="linear-gradient-38" x1="171.39" y1="141.95" x2="171.39" y2="113.41" gradientTransform="translate(0 402) scale(1 -1)" gradientUnits="userSpaceOnUse"><stop offset="0" stop-color="#95ffff"/><stop offset=".14" stop-color="#70eaef"/><stop offset=".44" stop-color="#15b6c8"/><stop offset=".5" stop-color="#00aac0"/><stop offset=".62" stop-color="#00b3bc"/><stop offset=".82" stop-color="#00ccb2"/><stop offset=".94" stop-color="#00dfab"/></linearGradient><linearGradient id="linear-gradient-39" x1="239.62" y1="156.09" x2="239.62" y2="126.58" gradientTransform="translate(0 402) scale(1 -1)" gradientUnits="userSpaceOnUse"><stop offset="0" stop-color="#95ffff"/><stop offset=".14" stop-color="#70eaef"/><stop offset=".44" stop-color="#15b6c8"/><stop offset=".5" stop-color="#00aac0"/><stop offset=".62" stop-color="#00b3bc"/><stop offset=".82" stop-color="#00ccb2"/><stop offset=".94" stop-color="#00dfab"/></linearGradient><linearGradient id="linear-gradient-40" x1="239.62" y1="141.95" x2="239.62" y2="113.41" gradientTransform="translate(0 402) scale(1 -1)" gradientUnits="userSpaceOnUse"><stop offset="0" stop-color="#95ffff"/><stop offset=".14" stop-color="#70eaef"/><stop offset=".44" stop-color="#15b6c8"/><stop offset=".5" stop-color="#00aac0"/><stop offset=".62" stop-color="#00b3bc"/><stop offset=".82" stop-color="#00ccb2"/><stop offset=".94" stop-color="#00dfab"/></linearGradient><linearGradient id="linear-gradient-41" x1="239.62" y1="167.87" x2="239.62" y2="143.52" gradientTransform="translate(0 402) scale(1 -1)" gradientUnits="userSpaceOnUse"><stop offset="0" stop-color="#95ffff"/><stop offset=".14" stop-color="#70eaef"/><stop offset=".44" stop-color="#15b6c8"/><stop offset=".5" stop-color="#00aac0"/><stop offset=".62" stop-color="#00b3bc"/><stop offset=".82" stop-color="#00ccb2"/><stop offset=".94" stop-color="#00dfab"/></linearGradient><linearGradient id="linear-gradient-42" x1="206.02" y1="215.16" x2="206.02" y2="195.45" gradientTransform="translate(0 402) scale(1 -1)" gradientUnits="userSpaceOnUse"><stop offset="0" stop-color="#95ffff"/><stop offset=".14" stop-color="#70eaef"/><stop offset=".44" stop-color="#15b6c8"/><stop offset=".5" stop-color="#00aac0"/><stop offset=".62" stop-color="#00b3bc"/><stop offset=".82" stop-color="#00ccb2"/><stop offset=".94" stop-color="#00dfab"/></linearGradient></defs><rect class="cls-43" x="13.46" y="82.99" width="372.79" height="213.65"/><path class="cls-43" d="m161.46,85.48h-45.38c-2.8-.04-5.57-.75-8.07-2.04-2.58,1.33-5.43,2.03-8.3,2.03h-23.75c-2.8-.04-5.55-.74-8.05-2.03-2.58,1.33-5.43,2.04-8.31,2.04H2l15.64-26v-31.46L2,2.02h57.8c2.8.04,5.56.73,8.06,2.02,2.58-1.34,5.44-2.04,8.32-2.04l162.25.02v25.39l3.29-1.96v-4.69c0-10.34,8.27-18.75,18.43-18.75h23.76c2.8.05,5.56.76,8.06,2.05,2.49-1.29,5.25-1.99,8.03-2.03h24.03c2.8.04,5.56.74,8.05,2.03,2.5-1.3,5.27-2,8.06-2.03h57.86l-15.66,25.98v31.42l15.53,26.07h-208.4l-28.01,16.84v-16.86Z"/><polygon class="cls-44" points="213.83 14.26 213.83 73.23 249.74 73.23 249.74 34.92 237.37 42.29 237.37 59.89 226.2 59.89 226.2 14.26 213.83 14.26"/><path class="cls-44" d="m266.33,57.59v-27.72c0-1.29,1-2.34,2.23-2.34h6.71c1.23,0,2.22,1.05,2.22,2.34v27.72c0,1.3-.99,2.34-2.22,2.34h-6.71c-1.23,0-2.23-1.04-2.23-2.34m-12.35-36.85v45.99c0,3.53,2.73,6.45,6.1,6.49h23.61c3.41,0,6.18-2.91,6.18-6.49V20.74c0-3.53-2.73-6.44-6.09-6.49h-23.6c-3.42,0-6.19,2.91-6.19,6.49"/><path class="cls-44" d="m348.79,59.94c-1.22,0-2.22-1.05-2.22-2.34v-27.72c0-1.29,1-2.34,2.22-2.34h8.94v32.41h-8.94Zm-8.48-45.68c-3.36.04-6.1,2.96-6.1,6.49v45.99c0,3.59,2.77,6.5,6.19,6.5h35.93l-6.23-10.45V24.59l6.23-10.33s-36.02,0-36.02,0Z"/><path class="cls-44" d="m173.71,80.67l12.38-7.44V27.43h8.94c1.22,0,2.22,1.05,2.22,2.34v43.46h12.33V20.75c0-3.53-2.73-6.44-6.1-6.49h-29.78v66.41h0Z"/><path class="cls-44" d="m157.15,14.26v43.34c0,1.29-1,2.34-2.22,2.34h-6.69c-1.23,0-2.23-1.05-2.23-2.34V14.26h-12.37v43.34c0,1.29-1.01,2.34-2.24,2.34h-6.68c-1.23,0-2.22-1.05-2.22-2.34V14.26h-12.37v52.48c0,3.53,2.73,6.45,6.1,6.49h47.07c3.41,0,6.19-2.91,6.19-6.49V14.26h-12.34Z"/><path class="cls-44" d="m306.45,44.24v-14.36c0-1.28,1.01-2.34,2.23-2.34h6.71c1.23,0,2.22,1.06,2.22,2.34v14.36h-11.17.01Zm-6.26-29.99c-3.36.05-6.09,2.96-6.09,6.49v52.48h12.37v-15.68h11.15v15.68h12.37V20.74c0-3.53-2.73-6.44-6.09-6.49h-23.71Z"/><path class="cls-44" d="m42.26,59.94V27.53h8.94c1.22,0,2.22,1.05,2.22,2.34v27.72c0,1.29-1,2.34-2.22,2.34h-8.94ZM23.67,14.26l6.23,10.36v38.26l-6.23,10.36h35.93c3.41,0,6.18-2.91,6.18-6.5V20.75c0-3.53-2.73-6.45-6.1-6.49H23.66h0Z"/><path class="cls-44" d="m82.36,57.59v-27.72c0-1.29,1-2.34,2.23-2.34h6.71c1.23,0,2.23,1.05,2.23,2.34v27.72c0,1.3-1,2.34-2.23,2.34h-6.71c-1.23,0-2.23-1.04-2.23-2.34m-12.35-36.85v45.99c0,3.53,2.73,6.45,6.1,6.49h23.61c3.4,0,6.18-2.91,6.18-6.49V20.74c0-3.53-2.74-6.44-6.1-6.49h-23.6c-3.41,0-6.19,2.91-6.19,6.49"/><path class="cls-1" d="m45.88,213.57c10.37-8,31.5-8,41.87,0,12.25,9.44,36.3,9.44,48.54,0,.19-.15.41-.27.6-.41v-10.87c-1.4.62-2.74,1.29-3.94,2.06-10.38,6.66-31.5,6.66-41.88,0-12.25-7.87-36.29-7.87-48.54,0-4.84,3.11-12.02,4.75-19.36,4.96v11.32c8.54-.26,16.92-2.61,22.69-7.05h.02Z"/><path class="cls-36" d="m136.29,249.78c.19-.22.41-.41.6-.62v-7.94c-1.41.99-2.73,2.11-3.94,3.34-10.27,10.56-31.06,10.65-41.55.3v8.46c12.91,10.49,33.76,9.31,44.88-3.55h0Z"/><path class="cls-37" d="m45.88,225.79c5.59-5.03,14.32-7.33,22.8-6.93v-.31l7.96-5.81c-11.85-2.36-25.72-.33-34.09,6.13-4.84,3.73-12.02,5.7-19.36,5.95v9.2c8.54-.3,16.92-3.04,22.69-8.23h0Z"/><path class="cls-35" d="m91.41,219.1v9.41c12.91,8.18,33.75,7.3,44.88-2.71.19-.17.41-.32.6-.48v-8.91c-1.4.74-2.74,1.55-3.94,2.47-10.27,7.92-31.06,7.98-41.55.23h0Z"/><path class="cls-41" d="m42.55,200.51c12.25-7.87,36.29-7.87,48.54,0,10.38,6.66,31.5,6.66,41.88,0,1.08-.69,2.28-1.3,3.53-1.88l-7.97-5.65c-11.14,2.87-28.38,2.38-37.44-1.47-12.25-5.21-36.29-5.21-48.54,0-3.43,1.46-8.03,2.42-13.03,2.92l-6.33,4.49v6.54c7.33-.21,14.52-1.85,19.36-4.96h0Z"/><path class="cls-42" d="m91.41,232.24v6.49c10.48,10.34,31.28,10.25,41.55-.3,1.2-1.24,2.53-2.35,3.94-3.34v-5.99c-1.4.87-2.74,1.81-3.94,2.88-10.27,9.24-31.06,9.31-41.55.26h0Z"/><path class="cls-40" d="m45.88,264.56c5.59-8.12,14.32-11.85,22.8-11.21v-6.19c-9.68-.52-19.58,3.01-26.13,10.57-4.84,5.59-12.02,8.57-19.36,8.95v11.16c8.54-.49,16.92-4.91,22.69-13.28h0Z"/><path class="cls-38" d="m33.92,191.32c3.26-.55,6.24-1.32,8.62-2.33,12.25-5.21,36.29-5.21,48.54,0,8.35,3.55,23.65,4.24,34.72,2.07l-8.32-5.9,19.42-14.64v-88.16h-45.48v67.95l-11.5,8.79-11.24-8.79v-67.95H23.19v88.16l19.42,14.64-8.69,6.16h0Z"/><path class="cls-39" d="m42.55,274.54c-4.84,7.02-12.02,10.75-19.36,11.22v1.33h45.48v-25.82c-9.68-.65-19.58,3.77-26.13,13.27h0Z"/><path class="cls-18" d="m42.55,238.43c6.54-6.73,16.45-9.86,26.13-9.4v-5.25c-9.68-.4-19.58,2.31-26.13,8.2-4.84,4.35-12.02,6.65-19.36,6.94v7.44c7.33-.33,14.52-2.96,19.36-7.93h0Z"/><path class="cls-15" d="m132.96,274.54c-10.27,14.9-31.06,15.03-41.55.45v12.1h45.48v-17.27c-1.41,1.4-2.73,2.97-3.94,4.72h.01Z"/><path class="cls-16" d="m45.88,249.78c5.59-6.47,14.32-9.42,22.8-8.91v-5.71c-9.68-.46-19.58,2.67-26.13,9.4-4.84,4.97-12.02,7.6-19.36,7.93v7.87c8.54-.39,16.92-3.91,22.69-10.58Z"/><path class="cls-17" d="m136.29,264.56c.2-.28.4-.55.6-.82v-9.76c-1.41,1.12-2.73,2.37-3.94,3.76-10.27,11.88-31.06,11.97-41.55.34v10.94c12.91,13.17,33.76,11.69,44.88-4.45h0Z"/><path class="cls-26" d="m313.79,204.34c-9.69,6.22-28.76,6.63-39.68,1.23v11.28c12.98,5.98,32.41,4.9,43.02-3.28.76-.59,1.6-1.12,2.46-1.62v-10.44c-2.12.79-4.08,1.73-5.8,2.83Z"/><path class="cls-22" d="m317.13,249.78c.76-.88,1.6-1.68,2.46-2.43v-7.34c-2.12,1.27-4.08,2.78-5.8,4.55-9.69,9.96-28.76,10.61-39.68,1.96v8.19c12.98,8.97,32.41,7.33,43.02-4.93Z"/><path class="cls-20" d="m313.79,218.87c-9.69,7.47-28.76,7.96-39.68,1.47v9.27c12.98,6.98,32.41,5.71,43.02-3.82.76-.69,1.6-1.3,2.46-1.89v-8.43c-2.12.95-4.08,2.07-5.8,3.4h0Z"/><path class="cls-19" d="m313.79,238.43c1.72-1.77,3.68-3.28,5.8-4.55v-5.86c-2.12,1.11-4.08,2.42-5.8,3.96-9.69,8.71-28.76,9.28-39.68,1.72v6.7c10.92,8.64,30,8,39.68-1.96h0Z"/><path class="cls-25" d="m313.79,188.99c1.72-.73,3.69-1.35,5.8-1.87v-104.76h-45.48v107.45c10.92,3.58,30,3.31,39.68-.81h0Z"/><path class="cls-21" d="m313.79,274.54c-9.68,14.06-28.76,14.98-39.68,2.78v9.77h45.48v-18.98c-2.12,1.8-4.08,3.93-5.8,6.43h0Z"/><path class="cls-28" d="m274.11,192.33v9.4c10.92,5.4,30,5,39.68-1.23,1.72-1.1,3.69-2.04,5.8-2.83v-8.03c-2.12.53-4.08,1.14-5.8,1.87-9.69,4.12-28.76,4.39-39.68.81h0Z"/><path class="cls-24" d="m317.13,264.56c.76-1.11,1.59-2.13,2.46-3.07v-8.87c-2.12,1.43-4.08,3.13-5.8,5.12-9.69,11.2-28.76,11.93-39.68,2.21v10.81c12.98,11.25,32.41,9.19,43.02-6.19h0Z"/><path class="cls-27" d="m362.33,231.98c-7.64-6.88-19.88-9.46-30.98-7.75v5.34c11.1-1.95,23.34,1,30.98,8.86,3.76,3.86,8.94,6.31,14.5,7.38v-7.38c-5.56-.93-10.74-3.07-14.5-6.45h0Z"/><path class="cls-23" d="m362.33,188.99c3.76,1.6,8.94,2.61,14.5,3.05v-109.68h-45.48v102.97c11.1-.81,23.34.41,30.98,3.67h0Z"/><path class="cls-30" d="m359,264.56c4.66,6.77,11.04,10.95,17.83,12.56v-11.09c-5.56-1.19-10.74-3.95-14.5-8.29-7.64-8.84-19.88-12.17-30.98-9.97v6.45c9.85-2.78,20.98.66,27.65,10.35h0Z"/><path class="cls-14" d="m362.33,244.56c-7.64-7.86-19.88-10.81-30.98-8.86v5.85c9.85-2.22,20.98.5,27.65,8.23,4.66,5.4,11.04,8.73,17.83,10.01v-7.86c-5.56-1.06-10.74-3.51-14.5-7.38h0Z"/><path class="cls-31" d="m362.33,218.87c-7.64-5.9-19.88-8.11-30.98-6.65v7.17c9.85-1.73,20.98.39,27.65,6.4,4.66,4.2,11.05,6.78,17.83,7.78v-9.17c-5.56-.8-10.74-2.63-14.5-5.53h0Z"/><path class="cls-29" d="m362.33,274.54c-7.64-11.1-19.88-15.27-30.98-12.51v25.06h45.48v-2.13c-5.56-1.5-10.73-4.96-14.5-10.42h0Z"/><path class="cls-13" d="m362.33,191.52c-7.64-3.25-19.88-4.47-30.98-3.66v7.12c11.1-1.22,23.34.62,30.98,5.54,3.76,2.42,8.94,3.95,14.5,4.61v-10.55c-5.56-.44-10.74-1.45-14.5-3.05h0Z"/><path class="cls-4" d="m362.33,204.34c-7.64-4.91-19.88-6.76-30.98-5.54v9.28c9.85-1.48,20.98.34,27.65,5.48,4.66,3.6,11.05,5.81,17.83,6.67v-11.28c-5.56-.66-10.74-2.19-14.5-4.61h0Z"/><path class="cls-6" d="m262.36,231.95v-5.6c-12.71-4.82-29.43-2.96-38.98,5.64-1.86,1.67-4.07,3.03-6.5,4.11v7.04c2.43-1.23,4.64-2.78,6.5-4.69,9.55-9.82,26.27-11.98,38.98-6.49h0Z"/><path class="cls-7" d="m181.5,238.43c3.33,3.43,7.79,5.74,12.63,6.96v-7.32c-4.84-1.07-9.3-3.09-12.63-6.09-8.08-7.27-21.28-9.71-32.85-7.39v5.36c11.57-2.65,24.78.18,32.85,8.48h0Z"/><path class="cls-5" d="m223.38,204.34c-10.37,6.66-31.5,6.66-41.87,0-8.08-5.19-21.28-6.93-32.85-5.28v9.33c10.28-2.02,22.42-.3,29.51,5.18,4.24,3.26,9.89,5.37,15.97,6.38v-1.4l11.24-8.2,11.44,8.16c3.71-1.17,7.11-2.8,9.89-4.94,8.58-6.62,24.52-7.74,35.65-3.41v-9.85c-12.71-3.44-29.43-2.11-38.98,4.03h0Z"/><path class="cls-3" d="m178.17,249.78c4.24,4.9,9.89,8.1,15.97,9.61v-7.87c-4.84-1.22-9.3-3.53-12.63-6.96-8.08-8.3-21.28-11.13-32.85-8.48v5.93c10.28-3.03,22.42-.44,29.51,7.77h0Z"/><path class="cls-10" d="m226.71,225.79c8.58-7.72,24.52-9.03,35.65-3.97v-7.78c-12.71-4.13-29.43-2.54-38.98,4.83-1.86,1.43-4.07,2.6-6.5,3.52v9.14c3.69-1.36,7.07-3.26,9.83-5.74h0Z"/><path class="cls-12" d="m148.65,212.54v7.22c10.28-2.36,22.42-.35,29.51,6.04,4.24,3.81,9.89,6.27,15.97,7.44v-9.14c-4.84-.92-9.3-2.65-12.63-5.22-8.08-6.23-21.28-8.32-32.85-6.34Z"/><path class="cls-8" d="m178.17,264.56c4.24,6.15,9.89,10.16,15.97,12.06v-11.05c-4.84-1.38-9.3-3.98-12.63-7.83-8.08-9.34-21.28-12.52-32.85-9.54v6.62c10.28-3.8,22.42-.55,29.51,9.75h0Z"/><path class="cls-11" d="m167.39,185.64c5.37.61,10.31,1.73,14.11,3.34,10.37,4.41,31.5,4.41,41.87,0,5.08-2.16,12.18-3.41,19.63-3.78l-.07-.05,19.42-14.64v-88.16h-45.48v67.95l-11.5,8.79-11.24-8.79v-67.95h-45.48v88.16l19.42,14.64-.68.48h0Z"/><path class="cls-2" d="m181.5,274.54c-8.08-11.72-21.28-15.71-32.85-11.97v24.52h45.48v-2.71c-4.85-1.73-9.3-5-12.63-9.84h0Z"/><path class="cls-9" d="m226.71,264.56c8.58-12.45,24.52-14.59,35.65-6.44v-7.68c-12.71-6.18-29.43-3.75-38.98,7.3-1.86,2.15-4.07,3.9-6.5,5.28v10.86c3.7-2.2,7.07-5.3,9.83-9.31h0Z"/><path class="cls-33" d="m223.38,274.54c-1.86,2.7-4.07,4.91-6.5,6.64v5.91h45.48v-21.71c-12.71-7.75-29.43-4.7-38.98,9.15h0Z"/><path class="cls-34" d="m226.71,249.78c8.58-9.93,24.52-11.61,35.65-5.11v-6.6c-12.71-5.49-29.43-3.33-38.98,6.49-1.86,1.91-4.07,3.47-6.5,4.69v7.95c3.7-1.75,7.07-4.22,9.83-7.42h0Z"/><path class="cls-32" d="m223.38,191.52c-10.37,4.41-31.5,4.41-41.87,0-4.54-1.93-10.7-3.14-17.27-3.64l-9.59,6.8c9.91-.41,20.15,1.52,26.86,5.83,10.37,6.66,31.5,6.66,41.87,0,8.34-5.36,22.16-7.06,34-5.12l-10.94-7.76c-8.66.11-17.21,1.4-23.06,3.88h0Z"/></svg>