<?xml version="1.0" encoding="UTF-8"?><svg id="Layer_1" xmlns="http://www.w3.org/2000/svg" viewBox="0 0 800 600"><defs><style>.cls-1,.cls-2,.cls-3,.cls-4,.cls-5,.cls-6{stroke-width:0px;}.cls-2{fill:#191919;}.cls-3{fill:#fff;}.cls-4{fill:aqua;}.cls-5{fill:#00020e;}.cls-6{fill:#020f0f;}</style></defs><polygon class="cls-3" points="362 36.9 350 54 338 36.9 346.4 38.6 350 6 353.6 38.6 362 36.9"/><polygon class="cls-3" points="391.9 34.1 384 35.5 385.4 27.6 387.2 30.4 397 22.5 389.2 32.3 391.9 34.1"/><polygon class="cls-3" points="408.1 5.9 416 4.5 414.6 12.4 412.8 9.6 403 17.5 410.8 7.7 408.1 5.9"/><polygon class="cls-3" points="389.1 63.9 397 62.5 395.6 70.4 393.8 67.6 384 75.5 391.8 65.7 389.1 63.9"/><polygon class="cls-3" points="410.9 56.1 403 57.5 404.4 49.6 406.2 52.4 416 44.5 408.2 54.3 410.9 56.1"/><polygon class="cls-4" points="441 11 441 21 445 21 443 29 451 20 451 11 441 11"/><polygon class="cls-4" points="429 21 433 21 431 29 439 20 439 11 429 11 429 21"/><polygon class="cls-4" points="479 29 479 19 475 19 477 11 469 20 469 29 479 29"/><polygon class="cls-4" points="491 19 487 19 489 11 481 20 481 29 491 29 491 19"/><path class="cls-4" d="m520,5c-8.28,0-15,6.72-15,15s6.72,15,15,15,15-6.72,15-15-6.72-15-15-15Zm2,17l-2,8-2-8-8-2,8-2,2-8,2,8,8,2-8,2Z"/><path class="cls-3" d="m600,5c-8.28,0-15,6.72-15,15s6.72,15,15,15,15-6.72,15-15-6.72-15-15-15Zm2,17l-2,8-2-8-8-2,8-2,2-8,2,8,8,2-8,2Z"/><path class="cls-6" d="m560,5c-8.28,0-15,6.72-15,15s6.72,15,15,15,15-6.72,15-15-6.72-15-15-15Zm2,17l-2,8-2-8-8-2,8-2,2-8,2,8,8,2-8,2Z"/><path class="cls-3" d="m600,102.9l-7.1,4.2,4.2-7.1-4.1-7,7.1,4.2,7.1-4.2-4.2,7.1,4.2,7.1s-7.2-4.3-7.2-4.3Z"/><path class="cls-4" d="m640,35c8.28,0,15-6.72,15-15s-6.72-15-15-15-15,6.72-15,15,6.72,15,15,15Zm0-16.5l9-2.5-9,10-9-10,9,2.5Z"/><path class="cls-3" d="m640,75c8.28,0,15-6.72,15-15s-6.72-15-15-15-15,6.72-15,15,6.72,15,15,15Zm0-16.5l9-2.5-9,10-9-10,9,2.5Z"/><path class="cls-3" d="m795,160c0-8.28-6.72-15-15-15s-15,6.72-15,15,6.72,15,15,15,15-6.72,15-15h0Zm-20,0v-6l14,6-14,6v-6Z"/><path class="cls-3" d="m773,230v-7.71l18,7.71-18,7.71v-7.71Z"/><path class="cls-3" d="m720,17l15-4-15,16-15-16,15,4Z"/><circle class="cls-3" cx="737.8" cy="57.8" r="3.8"/><path class="cls-3" d="m740,45c-8.28,0-15,6.72-15,15s6.72,15,15,15,15-6.72,15-15-6.72-15-15-15Zm6.4,23l-5.4-5.4c-2.65,1.77-6.23,1.05-8-1.6-1.77-2.65-1.05-6.23,1.6-8,2.65-1.77,6.23-1.05,8,1.6,1.29,1.94,1.29,4.46,0,6.4l5.4,5.4-1.6,1.6Z"/><path class="cls-3" d="m770.2,19.6c-.1-.89-.31-1.76-.6-2.6-.43-1.14-1-2.21-1.7-3.2-.7-.95-1.55-1.8-2.5-2.5-.94-.72-1.99-1.29-3.1-1.7-2.18-.78-4.54-.92-6.8-.4-1.1.27-2.14.71-3.1,1.3-.95.59-1.83,1.29-2.6,2.1-.74.82-1.38,1.72-1.9,2.7-.48.98-.82,2.02-1,3.1-.15,1.06-.15,2.14,0,3.2.19,1.06.5,2.1.9,3.1.45.94,1.02,1.81,1.7,2.6.71.77,1.51,1.44,2.4,2,1.77,1.09,3.83,1.61,5.9,1.5-1.02-.05-2.03-.26-3-.6-.94-.33-1.81-.8-2.6-1.4-.8-.6-1.5-1.3-2.1-2.1-.56-.78-1.03-1.61-1.4-2.5-.31-.91-.51-1.85-.6-2.8-.05-.94.05-1.89.3-2.8.23-.9.56-1.78,1-2.6.49-.76,1.06-1.47,1.7-2.1.67-.59,1.41-1.09,2.2-1.5.8-.36,1.64-.62,2.5-.8.86-.1,1.74-.1,2.6,0,1.71.24,3.3.97,4.6,2.1.61.56,1.15,1.2,1.6,1.9.39.74.73,1.51,1,2.3.12.46.18.93.2,1.4l-3.5-1,5.6,6.2,5.6-6.2-3.3,1.3h0Z"/><path class="cls-4" d="m520,45c-8.28,0-15,6.72-15,15s6.72,15,15,15,15-6.72,15-15-6.72-15-15-15Zm1.9,20l.7-3.5-13.6-1.5,13.6-1.5-.7-3.5,7.1,5-7.1,5Z"/><path class="cls-3" d="m518.1,95l-.7,3.5,13.6,1.5-13.6,1.5.7,3.5-7.1-5,7.1-5Z"/><path class="cls-6" d="m560,45c-8.28,0-15,6.72-15,15s6.72,15,15,15,15-6.72,15-15-6.72-15-15-15Zm1.9,20l.7-3.5-13.6-1.5,13.6-1.5-.7-3.5,7.1,5-7.1,5Z"/><path class="cls-3" d="m600,45c-8.28,0-15,6.72-15,15s6.72,15,15,15,15-6.72,15-15-6.72-15-15-15Zm1.9,20l.7-3.5-13.6-1.5,13.6-1.5-.7-3.5,7.1,5-7.1,5Z"/><path class="cls-3" d="m561.9,105l.7-3.5-13.6-1.5,13.6-1.5-.7-3.5,7.1,5-7.1,5Z"/><path class="cls-3" d="m511,134l-1,4,30,2-30,2,1,4-11-6,11-6Z"/><path class="cls-3" d="m609,146l1-4-30-2,30-2-1-4,11,6-11,6Z"/><path class="cls-4" d="m62.9,225l.7-3.5-13.6-1.5,13.6-1.5-.7-3.5,7.1,5-7.1,5Z"/><path class="cls-6" d="m57.1,255l-.7,3.5,13.6,1.5-13.6,1.5.7,3.5-7.1-5s7.1-5,7.1-5Z"/><path class="cls-3" d="m10,370l30,30v-30H10Zm25.9,9.4l-1.5-2.2-7.9,6.3,6.3-7.9-2.2-1.5,6.4-1.1-1.1,6.4h0Z"/><path class="cls-6" d="m22.9,225l.7-3.5-13.6-1.5,13.6-1.5-.7-3.5,7.1,5-7.1,5Z"/><path class="cls-3" d="m332.03,218.5l.49-2.45-9.52-1.05,9.52-1.05-.49-2.45,4.97,3.5-4.97,3.5Z"/><path class="cls-4" d="m17.1,255l-.7,3.5,13.6,1.5-13.6,1.5.7,3.5-7.1-5,7.1-5Z"/><path class="cls-2" d="m28,306c0,1.1-.9,2-2,2h-12c-1.1,0-2-.9-2-2v-12c0-1.1.9-2,2-2h6l2-2h-8c-2.21,0-4,1.79-4,4v12c0,2.21,1.79,4,4,4h12c2.21,0,4-1.79,4-4v-8l-2,2v6Z"/><rect class="cls-2" x="18.19" y="292.8" width="14" height="4" transform="translate(-201.07 104.16) rotate(-45)"/><polygon class="cls-2" points="21 301.9 16 304 18.1 299 21 301.9"/><path class="cls-3" d="m68,306c0,1.1-.9,2-2,2h-12c-1.1,0-2-.9-2-2v-12c0-1.1.9-2,2-2h6l2-2h-8c-2.21,0-4,1.79-4,4v12c0,2.21,1.79,4,4,4h12c2.21,0,4-1.79,4-4v-8l-2,2v6Z"/><rect class="cls-3" x="58.19" y="292.8" width="14" height="4" transform="translate(-189.36 132.44) rotate(-45)"/><polygon class="cls-3" points="61 301.9 56 304 58.1 299 61 301.9"/><polygon class="cls-3" points="10 340 40 335 38.5 340 40 345 10 340"/><polygon class="cls-3" points="110 340 80 345 81.5 340 80 335 110 340"/><path class="cls-5" d="m28,306c0,1.1-.9,2-2,2h-12c-1.1,0-2-.9-2-2v-12c0-1.1.9-2,2-2h6l2-2h-8c-2.21,0-4,1.79-4,4v12c0,2.21,1.79,4,4,4h12c2.21,0,4-1.79,4-4v-8l-2,2v6Z"/><rect class="cls-5" x="18.2" y="292.81" width="14" height="4" transform="translate(-201.08 104.17) rotate(-45)"/><polygon class="cls-5" points="21 301.9 16 304 18.1 299 21 301.9"/><rect class="cls-3" x="323.2" y="252.79" width="14" height="4" transform="translate(-83.45 308.11) rotate(-45)"/><polygon class="cls-3" points="326 261.9 321 264 323.1 259 326 261.9"/><path class="cls-3" d="m68,306c0,1.1-.9,2-2,2h-12c-1.1,0-2-.9-2-2v-12c0-1.1.9-2,2-2h6l2-2h-8c-2.21,0-4,1.79-4,4v12c0,2.21,1.79,4,4,4h12c2.21,0,4-1.79,4-4v-8l-2,2v6Z"/><rect class="cls-3" x="58.2" y="292.79" width="14" height="4" transform="translate(-189.35 132.45) rotate(-45)"/><polygon class="cls-3" points="61 301.9 56 304 58.1 299 61 301.9"/><polygon class="cls-6" points="142 292 139 289 132 296 125 289 122 292 129 299 122 306 125 309 132 302 139 309 142 306 135 299 142 292"/><path class="cls-6" d="m212,303.2c-.93,0-1.69-.75-1.7-1.68v-16.52c0-.93.75-1.69,1.68-1.7h.02c.93.03,1.67.77,1.7,1.7v16.4c.05.94-.67,1.75-1.62,1.8h-.08Zm2.9,6c0,1.6-1.3,2.9-2.9,2.9s-2.9-1.3-2.9-2.9,1.3-2.9,2.9-2.9h0c.45,0,.9.1,1.3.3.1.1.2.1.3.2s.2.1.3.2c.61.58.97,1.36,1,2.2h0Zm17.2,4.6c-.53.74-1.56.91-2.3.38-.03-.02-.07-.05-.1-.08-.76-.56-.94-1.62-.4-2.4,6.83-9.53,4.65-22.79-4.88-29.63-9.53-6.83-22.79-4.65-29.63,4.88s-4.65,22.79,4.88,29.63c7.54,5.41,17.71,5.29,25.13-.28.77-.55,1.85-.37,2.4.4s.37,1.85-.4,2.4c-3.92,2.92-8.62,4.59-13.5,4.8h-1.3c-13.81,0-25-11.19-25-25s11.19-25,25-25,25,11.19,25,25h0c.03,5.37-1.69,10.6-4.9,14.9h0Z"/><path class="cls-3" d="m80,105.7h-3.9v9.3h-4v-9.3h-3.1v-3.8h3.1v-1.9c-.1-2.66,1.98-4.9,4.64-5h3.26v3.8h-3.1c-.4,0-.8.5-.8,1.2v2h3.9v3.7Z"/><path class="cls-6" d="m80,155.7h-3.9v9.3h-4v-9.3h-3.1v-3.8h3.1v-1.9c-.1-2.66,1.98-4.9,4.64-5h3.26v3.8h-3.1c-.4,0-.8.5-.8,1.2v2h3.9v3.7Z"/><path class="cls-3" d="m134.8,101c-.12-.72-.39-1.4-.8-2-.53-.52-1.25-.81-2-.8-2.8-.2-7-.2-7-.2h0s-4.2,0-7,.2c-.75-.01-1.47.28-2,.8-.41.6-.68,1.28-.8,2-.1,1.1-.2,2.1-.2,3.2v1.5c0,1.1.1,2.2.2,3.2.12.72.39,1.4.8,2,.62.51,1.4.79,2.2.8,1.6.2,6.8.2,6.8.2,0,0,4.2,0,7-.2.75.01,1.47-.28,2-.8.41-.6.68-1.28.8-2,.1-1.1.2-2.1.2-3.2v-1.5c0-1-.1-2.1-.2-3.2Zm-11.9,6.6v-5.6l5.4,2.8s-5.4,2.8-5.4,2.8Z"/><path class="cls-6" d="m284.8,151c-.12-.72-.39-1.4-.8-2-.53-.52-1.25-.81-2-.8-2.8-.2-7-.2-7-.2h0s-4.2,0-7,.2c-.75,0-1.47.28-2,.8-.41.6-.68,1.28-.8,2-.1,1.1-.2,2.1-.2,3.2v1.5c0,1.1.1,2.2.2,3.2.12.72.39,1.4.8,2,.62.51,1.4.79,2.2.8,1.6.2,6.8.2,6.8.2,0,0,4.2,0,7-.2.75,0,1.47-.28,2-.8.41-.6.68-1.28.8-2,.1-1.1.2-2.1.2-3.2v-1.5c0-1-.1-2.1-.2-3.2Zm-11.9,6.6v-5.6l5.4,2.8-5.4,2.8Z"/><path class="cls-3" d="m175,96.8c1.33-.05,2.67-.01,4,.1.64,0,1.29.1,1.9.3.9.3,1.6,1,1.9,1.9.2.61.31,1.25.3,1.9,0,1.1.1,1.4.1,4,.04,1.33,0,2.67-.1,4,0,.64-.1,1.29-.3,1.9-.3.9-1,1.6-1.9,1.9-.61.2-1.25.31-1.9.3-1.1,0-1.4.1-4,.1-1.33.04-2.67.01-4-.1-.64,0-1.29-.1-1.9-.3-.9-.3-1.6-1-1.9-1.9-.2-.61-.31-1.25-.3-1.9,0-1.1-.1-1.4-.1-4-.04-1.33,0-2.67.1-4,0-.64.1-1.29.3-1.9.3-.9,1-1.6,1.9-1.9.61-.2,1.25-.31,1.9-.3,1.33-.11,2.67-.15,4-.1m0-1.8c-1.37-.04-2.74-.01-4.1.1-.82.01-1.64.18-2.4.5-1.33.53-2.37,1.57-2.9,2.9-.26.78-.43,1.58-.5,2.4,0,1.1-.1,1.4-.1,4.1-.04,1.37,0,2.74.1,4.1,0,.82.18,1.64.5,2.4.53,1.33,1.57,2.37,2.9,2.9.78.26,1.58.43,2.4.5,1.1,0,1.4.1,4.1.1,1.37.04,2.74.01,4.1-.1.82-.01,1.64-.18,2.4-.5,1.33-.53,2.37-1.57,2.9-2.9.26-.78.43-1.58.5-2.4,0-1.1.1-1.4.1-4.1.04-1.37,0-2.74-.1-4.1,0-.82-.18-1.64-.5-2.4-.53-1.33-1.57-2.37-2.9-2.9-.78-.26-1.58-.43-2.4-.5-1.36-.11-2.73-.14-4.1-.1Z"/><path class="cls-3" d="m175,99.9c-2.82,0-5.1,2.28-5.1,5.1s2.28,5.1,5.1,5.1,5.1-2.28,5.1-5.1h0c0-2.81-2.29-5.09-5.1-5.1Zm0,8.4c-1.82,0-3.3-1.48-3.3-3.3s1.48-3.3,3.3-3.3,3.3,1.48,3.3,3.3h0c-.02,1.82-1.48,3.28-3.3,3.3Z"/><circle class="cls-3" cx="180.3" cy="99.7" r="1.2"/><path class="cls-6" d="m225,146.8c1.33-.05,2.67,0,4,.1.64,0,1.29.1,1.9.3.9.3,1.6,1,1.9,1.9.2.61.31,1.25.3,1.9,0,1.1.1,1.4.1,4,.04,1.33,0,2.67-.1,4,0,.64-.1,1.29-.3,1.9-.3.9-1,1.6-1.9,1.9-.61.2-1.25.31-1.9.3-1.1,0-1.4.1-4,.1-1.33.04-2.67,0-4-.1-.64,0-1.29-.1-1.9-.3-.9-.3-1.6-1-1.9-1.9-.2-.61-.31-1.25-.3-1.9,0-1.1-.1-1.4-.1-4-.04-1.33,0-2.67.1-4,0-.64.1-1.29.3-1.9.3-.9,1-1.6,1.9-1.9.61-.2,1.25-.31,1.9-.3,1.33-.11,2.67-.15,4-.1m0-1.8c-1.37-.04-2.74,0-4.1.1-.82,0-1.64.18-2.4.5-1.33.53-2.37,1.57-2.9,2.9-.26.78-.43,1.58-.5,2.4,0,1.1-.1,1.4-.1,4.1-.04,1.37,0,2.74.1,4.1,0,.82.18,1.64.5,2.4.53,1.33,1.57,2.37,2.9,2.9.78.26,1.58.43,2.4.5,1.1,0,1.4.1,4.1.1,1.37.04,2.74,0,4.1-.1.82,0,1.64-.18,2.4-.5,1.33-.53,2.37-1.57,2.9-2.9.26-.78.43-1.58.5-2.4,0-1.1.1-1.4.1-4.1.04-1.37,0-2.74-.1-4.1,0-.82-.18-1.64-.5-2.4-.53-1.33-1.57-2.37-2.9-2.9-.78-.26-1.58-.43-2.4-.5-1.36-.11-2.73-.14-4.1-.1Z"/><path class="cls-6" d="m225,149.9c-2.82,0-5.1,2.28-5.1,5.1s2.28,5.1,5.1,5.1,5.1-2.28,5.1-5.1h0c0-2.81-2.29-5.09-5.1-5.1Zm0,8.4c-1.82,0-3.3-1.48-3.3-3.3s1.48-3.3,3.3-3.3,3.3,1.48,3.3,3.3h0c-.02,1.82-1.48,3.28-3.3,3.3h0Z"/><circle class="cls-6" cx="230.3" cy="149.7" r="1.2"/><path class="cls-6" d="m132.1,147.9c-3.88-3.88-10.16-3.92-14.1-.1-3.22,3.16-3.88,8.11-1.6,12l-1.4,5.2,5.3-1.4c1.47.79,3.12,1.21,4.8,1.2h0c5.48,0,9.95-4.42,10-9.9-.08-2.63-1.15-5.13-3-7Zm-7.1,15.3h0c-1.47,0-2.91-.39-4.2-1.1l-.3-.2-3.1.8.8-3-.2-.3c-2.43-3.87-1.27-8.97,2.6-11.4s8.97-1.27,11.4,2.6c2.43,3.87,1.27,8.97-2.6,11.4h0c-1.34.76-2.86,1.17-4.4,1.2Zm4.6-6.2l-1.7-.8c-.2-.12-.45-.08-.6.1-.2.2-.6.8-.8,1s-.3.2-.5.1c-.72-.3-1.39-.71-2-1.2-.52-.52-.99-1.09-1.4-1.7-.08-.17-.04-.37.1-.5.1-.1.2-.3.4-.4.11-.11.17-.25.2-.4.1-.11.1-.29,0-.4-.3-.58-.57-1.19-.8-1.8-.2-.5-.4-.4-.6-.4h-.5c-.27,0-.52.1-.7.3-.59.53-.92,1.3-.9,2.1.09.94.44,1.84,1,2.6,1.06,1.61,2.55,2.89,4.3,3.7.45.21.92.38,1.4.5.51.19,1.07.22,1.6.1.71-.14,1.33-.58,1.7-1.2.18-.37.22-.8.1-1.2.1-.3-.1-.4-.3-.5h0Z"/><path class="cls-6" d="m187,148.8l-2.6-2.8c-1.27-1.33-3.37-1.37-4.69-.11h0l-.1.1-2.8,2.9-.3.3-1.4,1.5-.9.9-2.2,2.3c-.99,1-1.31,2.49-.8,3.8l2.2-2.3,2.2-2.3.9-.9,1.4-1.5.3-.3,2.8-2.9c.49-.52,1.31-.55,1.84-.06l.06.06h0l2.6,2.8c.5.57.5,1.43,0,2l-7.6,7.9c-.45.46-1.16.55-1.7.2l-1.5,1.5c1.37,1.09,3.33,1,4.6-.2l7.6-7.9c1.38-1.37,1.42-3.58.1-5h0Z"/><path class="cls-6" d="m175,159.2l1-1,2.1-2.2c.99-1,1.31-2.49.8-3.8l-2.1,2.2h0c0,.06-.04.1-.1.1h0l-2.1,2.2-1,1-1.4,1.5-.2.2-2.9,3c-.49.52-1.31.55-1.84.06l-.06-.06h0l-2.6-2.8c-.5-.57-.5-1.43,0-2l7.6-7.9c.45-.46,1.16-.55,1.7-.2l1.5-1.5c-1.37-1.09-3.33-1-4.6.2l-7.6,7.9c-1.3,1.41-1.3,3.59,0,5l2.6,2.8c1.27,1.33,3.37,1.37,4.69.11h0l.1-.1,2.9-3,.2-.2,1.3-1.5h0Z"/><path class="cls-6" d="m325,145c-5.52,0-10,4.48-10,10s4.48,10,10,10,10-4.48,10-10-4.48-10-10-10Zm-8,10c-.02-.44.02-.87.1-1.3.54-.33,1.11-.59,1.7-.8-.2,1.39-.2,2.81,0,4.2-.6-.18-1.17-.45-1.7-.8-.08-.43-.12-.86-.1-1.3h0Zm2.6,0c.02-.8.08-1.6.2-2.4.82-.21,1.66-.38,2.5-.5-.08.96-.12,1.93-.1,2.9-.02.97.02,1.94.1,2.9-.85-.06-1.69-.23-2.5-.5-.12-.8-.18-1.6-.2-2.4Zm7.1,0c.02.97-.01,1.94-.1,2.9-.5,0-1,.1-1.6.1-.54.02-1.07,0-1.6-.1-.08-.96-.12-1.93-.1-2.9-.02-.97.01-1.94.1-2.9.5,0,1-.1,1.6-.1.54-.02,1.07,0,1.6.1.09.96.12,1.93.1,2.9Zm-1.7,8h-.6c-.5-1.28-.8-2.63-.9-4,.5,0,1,.1,1.5.1.5.02,1-.02,1.5-.1-.1,1.37-.4,2.72-.9,4h-.6Zm0-12c-.5-.02-1,.02-1.5.1.1-1.37.4-2.72.9-4h1.2c.5,1.28.8,2.63.9,4-.5-.08-1-.12-1.5-.1Zm1.7-3.8c.45.09.88.22,1.3.4.93,1.14,1.58,2.47,1.9,3.9-.79-.18-1.59-.32-2.4-.4-.12-1.33-.39-2.63-.8-3.9Zm-3.4,0c-.41,1.27-.68,2.57-.8,3.9-.81.08-1.61.22-2.4.4.32-1.43.97-2.76,1.9-3.9.42-.18.85-.31,1.3-.4Zm-.8,11.7c.11,1.33.38,2.64.8,3.9-.45-.09-.88-.22-1.3-.4-.93-1.14-1.58-2.47-1.9-3.9.79.18,1.59.32,2.4.4Zm4.2,3.9c.41-1.27.68-2.57.8-3.9.81-.08,1.61-.22,2.4-.4-.32,1.43-.97,2.76-1.9,3.9-.42.18-.85.31-1.3.4Zm.9-4.9c.08-.96.12-1.93.1-2.9.02-.97-.02-1.94-.1-2.9.85.06,1.69.23,2.5.5.3,1.59.3,3.21,0,4.8-.82.22-1.66.39-2.5.5h0Zm3.6-5c.6.18,1.17.45,1.7.8.2.86.2,1.74,0,2.6-.54.33-1.11.59-1.7.8.2-1.39.2-2.81,0-4.2h0Zm1.4-.5l-1.5-.6c-.22-1.08-.59-2.12-1.1-3.1,1.2.96,2.1,2.24,2.6,3.7h0Zm-12.5-3.7c-.51.98-.88,2.02-1.1,3.1-.52.16-1.02.36-1.5.6.5-1.46,1.4-2.74,2.6-3.7h0Zm-2.6,8.9l1.5.6c.22,1.08.59,2.12,1.1,3.1-1.2-.96-2.1-2.24-2.6-3.7h0Zm12.5,3.7c.51-.98.88-2.02,1.1-3.1.52-.16,1.02-.36,1.5-.6-.57,1.42-1.46,2.68-2.6,3.7h0Z"/><path class="cls-3" d="m233.85,103.09c-.16.01-.33.01-.49,0-1.8,0-3.48-.91-4.47-2.42v8.22c0,3.36-2.71,6.08-6.07,6.09-3.36,0-6.08-2.71-6.09-6.07,0-3.36,2.71-6.08,6.07-6.09h.39v3h-.37c-1.71.1-3.03,1.57-2.93,3.28.09,1.58,1.35,2.84,2.93,2.93,1.7,0,3.1-1.33,3.18-3.03v-14h2.87c.27,2.57,2.34,4.58,4.92,4.76v3.33"/><path class="cls-6" d="m30.58,146h3.05l-6.67,7.62,7.85,10.38h-6.14l-4.81-6.29-5.51,6.29h-3.06l7.14-8.16-7.53-9.84h6.3l4.35,5.75s5.03-5.75,5.03-5.75Zm-1.07,16.17h1.69l-10.92-14.44h-1.82s11.05,14.44,11.05,14.44Z"/><path class="cls-3" d="m30.58,96h3.05l-6.67,7.62,7.85,10.38h-6.14l-4.81-6.29-5.51,6.29h-3.06l7.14-8.16-7.53-9.84h6.3l4.35,5.75s5.03-5.75,5.03-5.75Zm-1.07,16.17h1.69l-10.92-14.44h-1.82s11.05,14.44,11.05,14.44Z"/><path class="cls-3" d="m279.8,104.27c-.09-.04-.17-.08-.26-.12-.15-2.86-1.72-4.49-4.34-4.51h-.04c-1.57,0-2.87.67-3.67,1.89l1.44.99c.6-.91,1.54-1.1,2.23-1.1h.02c.86,0,1.51.26,1.93.75.31.36.51.85.61,1.47-.76-.13-1.59-.17-2.48-.12-2.49.14-4.09,1.6-3.98,3.61.05,1.02.56,1.9,1.44,2.48.74.49,1.69.72,2.67.67,1.3-.07,2.32-.57,3.04-1.48.54-.69.88-1.58,1.04-2.71.62.37,1.08.87,1.34,1.46.43,1.01.46,2.66-.89,4.01-1.18,1.18-2.61,1.69-4.76,1.71-2.39-.02-4.19-.78-5.36-2.27-1.1-1.4-1.67-3.41-1.69-5.99.02-2.58.59-4.6,1.69-5.99,1.17-1.49,2.98-2.26,5.36-2.27,2.4.02,4.24.79,5.46,2.28.6.73,1.05,1.66,1.34,2.74l1.69-.45c-.36-1.33-.93-2.47-1.7-3.42-1.56-1.92-3.84-2.9-6.79-2.93h-.01c-2.94.02-5.19,1.01-6.71,2.94-1.35,1.72-2.05,4.1-2.07,7.1h0c.02,3,.72,5.39,2.07,7.11,1.52,1.93,3.77,2.92,6.71,2.94h.01c2.61-.02,4.45-.7,5.97-2.22,1.98-1.98,1.92-4.46,1.27-5.99-.47-1.09-1.36-1.98-2.59-2.57h.01Zm-4.51,4.24c-1.09.06-2.23-.43-2.28-1.48-.04-.78.55-1.65,2.35-1.75.21-.01.41-.02.61-.02.65,0,1.26.06,1.82.18-.21,2.58-1.42,3-2.49,3.06h-.01Z"/><path class="cls-1" d="m299,22.8l11-18.3h-42.2c-2.2,0-4.35.62-6.2,1.8-1.88-1.11-4.02-1.69-6.2-1.7h-18.4c-2.18,0-4.32.59-6.2,1.7-1.89-1.09-4.02-1.71-6.2-1.8h-18.3c-7.18.06-12.96,5.92-12.9,13.1h0v4.4l-5.2,3.1V4.5h-123.5c-2.26-.02-4.48.6-6.4,1.8-1.88-1.11-4.02-1.69-6.2-1.7H10l11,18.3v24.9l-11,18.3h42c2.26.02,4.48-.6,6.4-1.8,1.88,1.11,4.02,1.69,6.2,1.7h18.3c2.24,0,4.45-.59,6.4-1.7,1.88,1.11,4.02,1.69,6.2,1.7h36.2v12l19.9-11.9h158.4l-11-18.4s0-24.9,0-24.9Z"/><polygon class="cls-3" points="170.6 12.6 170.6 58 198.3 58 198.3 28.5 188.7 34.2 188.7 47.7 180.2 47.7 180.2 12.6 170.6 12.6"/><path class="cls-3" d="m211,45.9v-21.3c-.05-.94.67-1.75,1.62-1.8h5.28c.94,0,1.71.77,1.7,1.72v21.38c.05.94-.67,1.75-1.62,1.8h-5.28c-.96-.04-1.72-.84-1.7-1.8Zm-9.5-28.3v35.4c-.1,2.66,1.98,4.9,4.64,5h18.26c2.68-.11,4.8-2.31,4.8-5V17.6c.1-2.66-1.98-4.9-4.64-5h-18.26c-2.7.06-4.85,2.3-4.8,5Z"/><path class="cls-3" d="m274.5,47.7c-.94,0-1.71-.77-1.7-1.72v-21.38c-.05-.94.67-1.75,1.62-1.8h6.98v24.9h-6.9Zm-6.5-35.1c-2.67.1-4.76,2.33-4.7,5v35.4c-.05,2.7,2.1,4.94,4.8,5h27.6l-4.8-8v-29.5l4.8-7.9h-27.7,0Z"/><path class="cls-3" d="m139.8,63.7l9.5-5.7V22.7h6.9c.94,0,1.71.77,1.7,1.72v33.48h9.5V17.6c.1-2.66-1.98-4.9-4.64-5h-22.96v51.1h0Z"/><path class="cls-3" d="m127,12.6v33.3c.05.94-.67,1.75-1.62,1.8h-5.18c-.94,0-1.71-.77-1.7-1.72V12.6h-9.5v33.3c.05.94-.67,1.75-1.62,1.8h-5.18c-.94,0-1.71-.77-1.7-1.72V12.6h-9.5v40.4c-.1,2.66,1.98,4.9,4.64,5h36.26c2.68-.11,4.8-2.31,4.8-5V12.6h-9.7Z"/><path class="cls-3" d="m241.9,35.7v-11c-.05-.94.67-1.75,1.62-1.8h5.28c.94,0,1.71.77,1.7,1.72v11.08h-8.6,0Zm-4.8-23.1c-2.67.1-4.76,2.33-4.7,5v40.4h9.5v-12.1h8.6v12.1h9.5V17.6c.1-2.66-1.98-4.9-4.64-5h-18.26Z"/><path class="cls-3" d="m38.6,47.7v-24.9h6.9c.94,0,1.71.77,1.7,1.72v21.38c.05.94-.67,1.75-1.62,1.8h-6.98ZM24.3,12.6l4.8,8v29.4l-4.8,8h27.7c2.68-.11,4.8-2.31,4.8-5V17.6c.1-2.66-1.98-4.9-4.64-5h-27.86Z"/><path class="cls-3" d="m69.5,45.9v-21.3c-.05-.94.67-1.75,1.62-1.8h5.28c.94,0,1.71.77,1.7,1.72v.08h0v21.3c.05.94-.67,1.75-1.62,1.8h-5.28c-.94,0-1.71-.77-1.7-1.72,0,0,0-.08,0-.08Zm-9.5-28.3v35.4c-.1,2.66,1.98,4.9,4.64,5h18.26c2.68-.11,4.8-2.31,4.8-5V17.6c.1-2.66-1.98-4.9-4.64-5h-18.26c-2.64-.01-4.79,2.11-4.81,4.75v.25h0Z"/><rect class="cls-3" x="774" y="262" width="4" height="16"/><rect class="cls-3" x="782" y="262" width="4" height="16"/><path class="cls-3" d="m680,45c-8.28,0-15,6.72-15,15s6.72,15,15,15,15-6.72,15-15-6.72-15-15-15Zm-1.17,19.34l-2.11,2.18-.07.07c-.96.92-2.49.89-3.41-.08l-1.89-2.04c-.95-1.03-.95-2.61,0-3.64l5.53-5.75c.92-.87,2.35-.94,3.35-.15l-1.09,1.09c-.39-.25-.91-.19-1.24.15l-5.53,5.75c-.36.41-.36,1.04,0,1.46l1.89,2.04.04.04c.39.36.98.33,1.34-.04l2.11-2.18.15-.15,1.02-1.09.73-.73,1.53-1.6s.07-.03.07-.07l1.53-1.6c.37.95.14,2.04-.58,2.77l-1.53,1.6-.73.73h0l-.95,1.1-.15.15h-.01Zm9.76-5.18l-5.53,5.75c-.92.87-2.35.94-3.35.15l1.09-1.09c.39.25.91.19,1.24-.15l5.53-5.75c.36-.41.36-1.04,0-1.46l-1.89-2.04-.04-.04c-.39-.36-.98-.33-1.34.04l-2.04,2.11-.22.22-1.02,1.09-.65.65-1.6,1.67-1.6,1.67c-.37-.95-.14-2.04.58-2.77l1.6-1.67.65-.65,1.02-1.09.22-.22,2.04-2.11.07-.07c.96-.92,2.49-.89,3.41.08l1.89,2.04h0c.96,1.03.93,2.63-.07,3.63h0Z"/><path class="cls-3" d="m680,5c-8.28,0-15,6.72-15,15s6.72,15,15,15,15-6.72,15-15-6.72-15-15-15Zm-2.92,21.05l-5.81-6.99,5.74,2.63,12.3-8.49-12.23,12.85Z"/><polygon class="cls-3" points="330 206 330 204 319 204 319 226 330 226 330 224 321 224 321 206 330 206"/><path class="cls-3" d="m332.86,258.51c.09.48.14.98.14,1.49,0,4.41-3.59,8-8,8s-8-3.59-8-8,3.59-8,8-8c.51,0,1.01.05,1.49.14l1.64-1.64c-.99-.32-2.04-.51-3.13-.51-5.52,0-10,4.48-10,10s4.48,10,10,10,10-4.48,10-10c0-1.09-.18-2.14-.51-3.13l-1.64,1.64h.01Z"/><path class="cls-6" d="m391,249h-2v-1.09c0-2.16-1.79-3.91-4-3.91s-4,1.75-4,3.91v1.09h-2v-1.09c0-3.26,2.69-5.91,6-5.91s6,2.65,6,5.91v1.09Z"/><path class="cls-6" d="m391.12,251h-12.25c-1.03,0-1.88.84-1.88,1.88v9.25c0,1.03.84,1.88,1.88,1.88h12.25c1.03,0,1.88-.84,1.88-1.88v-9.25c0-1.03-.84-1.88-1.88-1.88Zm-5.46,7.38v1.46c0,.37-.3.67-.67.67s-.67-.3-.67-.67v-1.46c-.78-.28-1.33-1.01-1.33-1.88,0-1.1.9-2,2-2s2,.9,2,2c0,.87-.56,1.6-1.33,1.88Z"/><circle class="cls-6" cx="426" cy="249" r="2"/><circle class="cls-6" cx="426" cy="255" r="2"/><circle class="cls-6" cx="426" cy="261" r="2"/><path class="cls-6" d="m431.97,247.06h14.06c1.09,0,1.97.88,1.97,1.97h0c0,1.09-.88,1.97-1.97,1.97h-14.06c-1.09,0-1.97-.88-1.97-1.97h0c0-1.09.88-1.97,1.97-1.97Z"/><path class="cls-6" d="m431.97,253.06h14.06c1.09,0,1.97.88,1.97,1.97h0c0,1.09-.88,1.97-1.97,1.97h-14.06c-1.09,0-1.97-.88-1.97-1.97h0c0-1.09.88-1.97,1.97-1.97Z"/><path class="cls-6" d="m431.97,259.06h14.06c1.09,0,1.97.88,1.97,1.97h0c0,1.09-.88,1.97-1.97,1.97h-14.06c-1.09,0-1.97-.88-1.97-1.97h0c0-1.09.88-1.97,1.97-1.97Z"/><path class="cls-6" d="m494.9,248.89c-.31-.18-.66-.28-1.04-.28h-17.72c-.38,0-.73.11-1.04.28l9.9,5.94,9.9-5.94h0Z"/><path class="cls-6" d="m485,257.17l-10.98-6.59c0,.06-.02.11-.02.17v9.11c0,1.18.96,2.14,2.14,2.14h17.72c1.18,0,2.14-.96,2.14-2.14v-9.11c0-.06-.01-.12-.02-.17l-10.98,6.59h0Z"/><path class="cls-3" d="m391,209h-2v-1.09c0-2.16-1.79-3.91-4-3.91s-4,1.75-4,3.91v1.09h-2v-1.09c0-3.26,2.69-5.91,6-5.91s6,2.65,6,5.91v1.09Z"/><path class="cls-3" d="m391.12,211h-12.25c-1.03,0-1.88.84-1.88,1.88v9.25c0,1.03.84,1.88,1.88,1.88h12.25c1.03,0,1.88-.84,1.88-1.88v-9.25c0-1.03-.84-1.88-1.88-1.88Zm-5.46,7.38v1.46c0,.37-.3.67-.67.67s-.67-.3-.67-.67v-1.46c-.78-.28-1.33-1.01-1.33-1.88,0-1.1.9-2,2-2s2,.9,2,2c0,.87-.56,1.6-1.33,1.88Z"/><circle class="cls-3" cx="426" cy="209" r="2"/><circle class="cls-3" cx="426" cy="215" r="2"/><circle class="cls-3" cx="426" cy="221" r="2"/><path class="cls-3" d="m431.97,207.06h14.06c1.09,0,1.97.88,1.97,1.97h0c0,1.09-.88,1.97-1.97,1.97h-14.06c-1.09,0-1.97-.88-1.97-1.97h0c0-1.09.88-1.97,1.97-1.97Z"/><path class="cls-3" d="m431.97,213.06h14.06c1.09,0,1.97.88,1.97,1.97h0c0,1.09-.88,1.97-1.97,1.97h-14.06c-1.09,0-1.97-.88-1.97-1.97h0c0-1.09.88-1.97,1.97-1.97Z"/><path class="cls-3" d="m431.97,219.06h14.06c1.09,0,1.97.88,1.97,1.97h0c0,1.09-.88,1.97-1.97,1.97h-14.06c-1.09,0-1.97-.88-1.97-1.97h0c0-1.09.88-1.97,1.97-1.97Z"/><path class="cls-3" d="m494.9,208.89c-.31-.18-.66-.28-1.04-.28h-17.72c-.38,0-.73.11-1.04.28l9.9,5.94,9.9-5.94h0Z"/><path class="cls-3" d="m485,217.17l-10.98-6.59c0,.06-.02.11-.02.17v9.11c0,1.18.96,2.14,2.14,2.14h17.72c1.18,0,2.14-.96,2.14-2.14v-9.11c0-.06-.01-.12-.02-.17l-10.98,6.59h0Z"/><path class="cls-3" d="m680,85c-8.28,0-15,6.72-15,15s6.72,15,15,15,15-6.72,15-15-6.72-15-15-15Zm7,16h-6v6h-2v-6h-6v-2h6v-6h2v6h6v2Z"/><path class="cls-6" d="m780,345c-8.28,0-15,6.72-15,15s6.72,15,15,15,15-6.72,15-15-6.72-15-15-15Zm4,22h-8v-3h8v3Zm2-5h-12v-3h12v3Zm2-5h-16v-3h16v3Z"/></svg>